<?xml version="1.0" encoding="utf-8"?>
<!-- Generator: Adobe Illustrator 25.2.1, SVG Export Plug-In . SVG Version: 6.00 Build 0)  -->
<svg version="1.1" id="Layer_1" xmlns="http://www.w3.org/2000/svg" xmlns:xlink="http://www.w3.org/1999/xlink" x="0px" y="0px"
	 viewBox="0 0 802.4 899.9" enable-background="new 0 0 802.4 899.9" xml:space="preserve">
<g>
	<path fill="#1D1D1B" d="M70.5,460.7c38.9,0,70.5-31.6,70.5-70.5s-31.6-70.5-70.5-70.5C31.6,319.7,0,351.3,0,390.2
		S31.6,460.7,70.5,460.7z M70.5,345c24.9,0,45.2,20.3,45.2,45.2c0,24.9-20.3,45.2-45.2,45.2c-24.9,0-45.2-20.3-45.2-45.2
		C25.3,365.3,45.6,345,70.5,345z"/>
	<path fill="#1D1D1B" d="M731.9,416.4c38.9,0,70.5-31.6,70.5-70.5s-31.6-70.5-70.5-70.5c-38.9,0-70.5,31.6-70.5,70.5
		S693,416.4,731.9,416.4z M731.9,300.7c24.9,0,45.2,20.3,45.2,45.2c0,24.9-20.3,45.2-45.2,45.2c-24.9,0-45.2-20.3-45.2-45.2
		C686.7,321,707,300.7,731.9,300.7z"/>
	<path fill="#1D1D1B" d="M151.5,141c38.9,0,70.5-31.6,70.5-70.5S190.4,0,151.5,0C112.7,0,81,31.6,81,70.5S112.7,141,151.5,141z
		 M151.5,25.3c24.9,0,45.2,20.3,45.2,45.2c0,24.9-20.3,45.2-45.2,45.2c-24.9,0-45.2-20.3-45.2-45.2
		C106.3,45.6,126.6,25.3,151.5,25.3z"/>
	<path fill="#1D1D1B" d="M313.5,899.9c38.9,0,70.5-31.6,70.5-70.5s-31.6-70.5-70.5-70.5c-38.9,0-70.5,31.6-70.5,70.5
		S274.6,899.9,313.5,899.9z M313.5,784.2c24.9,0,45.2,20.3,45.2,45.2c0,24.9-20.3,45.2-45.2,45.2c-24.9,0-45.2-20.3-45.2-45.2
		C268.3,804.5,288.6,784.2,313.5,784.2z"/>
	<path fill="#1D1D1B" d="M430.4,651.7c79.7,0,144.5-64.8,144.5-144.5c0-79.7-64.8-144.5-144.5-144.5c-79.7,0-144.5,64.8-144.5,144.5
		C285.9,586.9,350.7,651.7,430.4,651.7z M430.4,388c65.7,0,119.2,53.5,119.2,119.2s-53.5,119.2-119.2,119.2
		c-65.7,0-119.2-53.5-119.2-119.2S364.6,388,430.4,388z"/>
</g>
</svg>
