<?xml version="1.0" encoding="utf-8"?>
<!-- Generator: Adobe Illustrator 25.2.1, SVG Export Plug-In . SVG Version: 6.00 Build 0)  -->
<svg version="1.1" id="Layer_1" xmlns="http://www.w3.org/2000/svg" xmlns:xlink="http://www.w3.org/1999/xlink" x="0px" y="0px"
	 viewBox="0 0 877 802.4" enable-background="new 0 0 877 802.4" xml:space="preserve">
<g>
	<path fill="#1D1D1B" d="M671.3,412.8c54.5,0,98.9-44.3,98.9-98.9c0-54.5-44.3-98.8-98.9-98.8s-98.9,44.3-98.9,98.8
		C572.4,368.4,616.8,412.8,671.3,412.8z M671.3,238.4c41.6,0,75.5,33.9,75.5,75.5s-33.9,75.5-75.5,75.5c-41.6,0-75.5-33.9-75.5-75.5
		S629.7,238.4,671.3,238.4z"/>
	<path fill="#1D1D1B" d="M702.6,69c0-35.9-29.2-65.1-65.1-65.1c-35.9,0-65.1,29.2-65.1,65.1c0,35.9,29.2,65.1,65.1,65.1
		C673.4,134.1,702.6,104.9,702.6,69z M595.8,69c0-23,18.7-41.7,41.7-41.7c23,0,41.7,18.7,41.7,41.7c0,23-18.7,41.7-41.7,41.7
		C614.5,110.7,595.8,92,595.8,69z"/>
	<path fill="#1D1D1B" d="M811.9,402c-35.9,0-65.1,29.2-65.1,65.1c0,35.9,29.2,65.1,65.1,65.1c35.9,0,65.1-29.2,65.1-65.1
		C877,431.2,847.8,402,811.9,402z M811.9,508.8c-23,0-41.7-18.7-41.7-41.7c0-23,18.7-41.7,41.7-41.7c23,0,41.7,18.7,41.7,41.7
		C853.6,490.1,834.9,508.8,811.9,508.8z"/>
	<path fill="#1D1D1B" d="M263.9,650.1c-35.9,0-65.1,29.2-65.1,65.1c0,35.9,29.2,65.1,65.1,65.1c35.9,0,65.1-29.2,65.1-65.1
		C329,679.3,299.8,650.1,263.9,650.1z M263.9,756.9c-23,0-41.7-18.7-41.7-41.7c0-23,18.7-41.7,41.7-41.7c23,0,41.7,18.7,41.7,41.7
		C305.7,738.2,286.9,756.9,263.9,756.9z"/>
	<path fill="#1D1D1B" d="M566.2,449.9c-97.2,0-176.3,79.1-176.3,176.3S469,802.4,566.2,802.4s176.3-79.1,176.3-176.2
		S663.4,449.9,566.2,449.9z M566.2,779c-84.3,0-152.9-68.6-152.9-152.9c0-84.3,68.6-152.9,152.9-152.9
		c84.3,0,152.9,68.6,152.9,152.9C719.1,710.4,650.5,779,566.2,779z"/>
	<path fill="#1D1D1B" d="M481,540.9c-22.8,22.8-35.3,53-35.3,85.2c0,6.5,5.2,11.7,11.7,11.7s11.7-5.2,11.7-11.7
		c0-26,10.1-50.4,28.5-68.7c4.6-4.6,4.6-11.9,0-16.5C492.9,536.3,485.5,536.3,481,540.9z"/>
	<path fill="#1D1D1B" d="M156,242.8c6.4,0,11.7-5.2,11.7-11.7c0-39.9,15.5-77.4,43.7-105.6c4.6-4.6,4.6-11.9,0-16.5
		c-4.6-4.6-11.9-4.6-16.5,0c-32.6,32.6-50.6,76-50.6,122.1C144.3,237.6,149.5,242.8,156,242.8z"/>
	<path fill="#1D1D1B" d="M252.7,95.1c1.6,0,3.1-0.3,4.7-1c18.8-8.2,38.9-12.4,59.6-12.4c6.4,0,11.7-5.2,11.7-11.7
		c0-6.5-5.2-11.7-11.7-11.7c-24,0-47.2,4.8-69,14.3c-5.9,2.6-8.6,9.5-6,15.4C243.9,92.5,248.2,95.1,252.7,95.1z"/>
	<path fill="#1D1D1B" d="M304.1,461.8c4.2,0.3,8.5,0.4,12.8,0.4c127.4,0,231-103.6,231-231C548,103.7,444.3,0,316.9,0
		c-127.4,0-231,103.7-231,231.1c0,26.2,4.6,51.9,13.3,76.6c-59,22-99.2,79-99.2,142.8c0,84,68.3,152.3,152.3,152.3
		C232.5,602.8,298.3,540.5,304.1,461.8z M316.9,23.3c114.5,0,207.7,93.2,207.7,207.8c0,114.5-93.2,207.7-207.7,207.7
		c-4.3,0-8.5-0.1-12.7-0.4c-0.1-0.8-0.2-1.7-0.3-2.5c-0.2-2.3-0.6-4.6-0.9-6.9c-0.4-2.6-0.8-5.3-1.3-7.9c-0.4-2.2-1-4.4-1.5-6.6
		c-0.6-2.6-1.3-5.1-2.1-7.6c-0.6-2.1-1.4-4.2-2.1-6.3c-0.9-2.5-1.8-4.9-2.8-7.4c-0.8-2-1.7-4-2.6-6c-1.1-2.4-2.3-4.7-3.5-7.1
		c-1-1.9-2.1-3.8-3.1-5.7c-1.3-2.3-2.7-4.5-4.1-6.7c-1.2-1.8-2.4-3.6-3.6-5.3c-1.5-2.1-3.1-4.2-4.8-6.3c-1.3-1.7-2.7-3.3-4.1-4.9
		c-1.7-2-3.5-3.9-5.4-5.8c-1.5-1.5-2.9-3.1-4.5-4.5c-1.9-1.8-3.9-3.6-5.9-5.3c-1.6-1.4-3.2-2.8-4.8-4.1c-2.1-1.7-4.2-3.2-6.4-4.8
		c-1.7-1.2-3.4-2.5-5.2-3.6c-2.3-1.5-4.6-2.8-6.9-4.2c-1.8-1-3.6-2.1-5.4-3.1c-2.4-1.3-4.9-2.4-7.4-3.6c-1.9-0.9-3.7-1.8-5.6-2.6
		c-2.6-1.1-5.3-2-7.9-2.9c-1.9-0.7-3.8-1.4-5.7-2c-2.8-0.9-5.7-1.5-8.6-2.2c-1.9-0.5-3.7-1-5.6-1.4c-3.2-0.6-6.5-1.1-9.8-1.5
		c-1.6-0.2-3.2-0.5-4.9-0.7c-5-0.5-10-0.8-15.1-0.8c-4.6,0-9.2,0.3-13.8,0.7c-1.2,0.1-2.4,0.2-3.6,0.4c-4.4,0.5-8.8,1.1-13.1,2
		c-0.2,0-0.3,0-0.5,0.1c-8.1-22.6-12.1-46.2-12.1-70.2C109.3,116.6,202.4,23.3,316.9,23.3z M152.3,579.5c-71.1,0-129-57.9-129-129
		c0-57.5,38.6-108.6,94-124.2c11.5-3.2,23.3-4.8,35-4.8c8,0,15.8,0.8,23.5,2.3c0.7,0.1,1.5,0.2,2.3,0.3c2.3,0.5,4.5,1.1,6.8,1.7
		c1.8,0.5,3.7,0.9,5.5,1.4c2.2,0.7,4.3,1.6,6.5,2.4c1.8,0.7,3.6,1.2,5.3,1.9c3,1.2,5.8,2.7,8.7,4.2c0.8,0.4,1.7,0.8,2.6,1.2
		c2.2,1.2,4.2,2.5,6.4,3.8c1.4,0.9,2.9,1.6,4.2,2.6c2,1.3,3.9,2.8,5.8,4.3c1.4,1,2.8,2,4.1,3.1c1.6,1.3,3.1,2.8,4.7,4.2
		c1.5,1.3,3,2.6,4.5,4c1.3,1.3,2.5,2.7,3.7,4c1.6,1.7,3.2,3.3,4.6,5c1.1,1.3,2,2.7,3.1,4.1c1.5,1.9,3,3.8,4.4,5.8
		c0.8,1.2,1.5,2.4,2.2,3.6c1.5,2.3,3,4.6,4.3,6.9c0.6,1.1,1.1,2.4,1.7,3.5c1.3,2.5,2.6,5,3.8,7.6c0.4,0.9,0.7,1.9,1.1,2.9
		c1.2,2.9,2.4,5.8,3.3,8.8c0.3,0.8,0.4,1.6,0.6,2.4c1,3.2,1.9,6.5,2.6,9.8c0.2,1.1,0.3,2.2,0.5,3.3c0.6,3.1,1.2,6.2,1.5,9.4
		c0.1,1.3,0.1,2.7,0.2,4c0.2,3,0.5,6,0.6,9v1.3C281.3,521.6,223.5,579.5,152.3,579.5z"/>
	<path fill="#1D1D1B" d="M82.3,380.5c-18.7,18.7-29,43.6-29,70c0,6.5,5.2,11.7,11.7,11.7s11.7-5.2,11.7-11.7
		c0-20.2,7.9-39.2,22.2-53.5c4.6-4.6,4.6-11.9,0-16.5C94.2,375.9,86.9,375.9,82.3,380.5z"/>
</g>
</svg>
