<?xml version="1.0" encoding="utf-8"?>
<!-- Generator: Adobe Illustrator 25.2.1, SVG Export Plug-In . SVG Version: 6.00 Build 0)  -->
<svg version="1.1" id="Layer_1" xmlns="http://www.w3.org/2000/svg" xmlns:xlink="http://www.w3.org/1999/xlink" x="0px" y="0px"
	 viewBox="0 0 856.4 804" enable-background="new 0 0 856.4 804" xml:space="preserve">
<g>
	<path fill="#1D1D1B" d="M448.7,687.8c0,64.1,52.2,116.2,116.2,116.2s116.2-52.2,116.2-116.2S629,571.6,565,571.6
		S448.7,623.7,448.7,687.8z M657.3,687.8c0,50.9-41.4,92.4-92.4,92.4c-50.9,0-92.4-41.4-92.4-92.4c0-50.9,41.4-92.4,92.4-92.4
		C615.9,595.4,657.3,636.9,657.3,687.8z"/>
	<path fill="#1D1D1B" d="M40.3,171.8c0,36.7,29.9,66.6,66.6,66.6c36.7,0,66.6-29.9,66.6-66.6c0-36.7-29.9-66.5-66.6-66.5
		C70.2,105.2,40.3,135.1,40.3,171.8z M149.5,171.8c0,23.5-19.1,42.7-42.7,42.7c-23.5,0-42.7-19.1-42.7-42.7
		c0-23.5,19.1-42.7,42.7-42.7C130.4,129.1,149.5,148.3,149.5,171.8z"/>
	<path fill="#1D1D1B" d="M111.4,358C78,391.3,59.7,435.7,59.7,482.9c0,6.6,5.3,11.9,11.9,11.9c6.6,0,11.9-5.3,11.9-11.9
		c0-40.8,15.9-79.1,44.7-108c4.7-4.7,4.7-12.2,0-16.9C123.6,353.3,116.1,353.3,111.4,358z"/>
	<path fill="#1D1D1B" d="M236.3,306.3c-24.5,0-48.2,4.9-70.5,14.6c-6.1,2.6-8.8,9.7-6.2,15.7c2,4.5,6.3,7.2,11,7.2
		c1.6,0,3.2-0.3,4.8-1c19.3-8.4,39.8-12.7,61-12.7c6.6,0,11.9-5.3,11.9-11.9C248.2,311.6,242.9,306.3,236.3,306.3z"/>
	<path fill="#1D1D1B" d="M856.4,276.7C856.4,124.1,732.3,0,579.7,0C434.6,0,313.9,114.1,303.8,256.5c-21.8-6.5-44.4-10-67.6-10
		C106,246.5,0,352.5,0,482.8c0,130.3,106,236.4,236.3,236.4c112.9,0,209.5-80.4,231.3-189.5c35.1,15.7,72.8,23.7,112.2,23.7
		C732.3,553.4,856.4,429.3,856.4,276.7z M236.3,695.3c-117.1,0-212.4-95.3-212.4-212.5c0-117.1,95.3-212.4,212.4-212.4
		c22.9,0,45.4,3.6,66.8,10.7c0,2.7,0.3,5.4,0.4,8.2c0.1,2.9,0.2,5.8,0.4,8.6c0.3,3.5,0.7,6.9,1.1,10.3c0.3,2.8,0.6,5.6,1,8.4
		c0.5,3.5,1.2,6.9,1.8,10.3c0.5,2.7,0.9,5.4,1.5,8c0.8,3.6,1.7,7.1,2.6,10.6c0.6,2.5,1.2,4.9,1.9,7.4c1.2,4.1,2.5,8,3.8,12
		c0.6,1.8,1.1,3.7,1.8,5.5c2.1,5.7,4.3,11.4,6.7,16.9c0.9,2.1,2,4.2,3,6.3c1.6,3.4,3.1,6.8,4.9,10.2c1.2,2.4,2.6,4.7,4,7.1
		c1.6,3,3.2,5.9,5,8.8c1.5,2.4,3.1,4.8,4.6,7.2c1.8,2.7,3.5,5.5,5.4,8.1c1.7,2.4,3.5,4.7,5.2,7c1.9,2.6,3.8,5.1,5.8,7.6
		c1.9,2.3,3.8,4.5,5.8,6.8c2.1,2.4,4.1,4.8,6.2,7.1c2,2.2,4.2,4.4,6.3,6.5c2.2,2.2,4.4,4.5,6.6,6.6c2.2,2.1,4.5,4.1,6.8,6.1
		c2.3,2.1,4.7,4.2,7.1,6.2c2.3,1.9,4.8,3.8,7.2,5.7c2.5,1.9,5,3.9,7.6,5.7c2.5,1.8,5,3.5,7.6,5.2c2.7,1.8,5.3,3.6,8.1,5.3
		c2.6,1.6,5.2,3.2,7.9,4.7c1.6,0.9,3.1,1.9,4.7,2.8C428.5,619.9,339.9,695.3,236.3,695.3z M579.7,529.5c-41,0-79.9-9.4-115.7-28
		c-84.6-43.5-137.1-129.6-137.1-224.7c0-0.9,0-1.9,0.1-2.8c0-0.4,0-0.7,0.1-1.1c2-137.3,115.4-249,252.7-249
		c139.4,0,252.7,113.4,252.7,252.9C832.5,416.1,719.1,529.5,579.7,529.5z"/>
	<path fill="#1D1D1B" d="M433.9,130.9c-38.9,38.9-60.4,90.7-60.4,145.8c0,6.6,5.3,11.9,11.9,11.9s11.9-5.3,11.9-11.9
		c0-48.7,19-94.5,53.4-128.9c4.7-4.7,4.7-12.2,0-16.9C446.1,126.2,438.6,126.2,433.9,130.9z"/>
	<path fill="#1D1D1B" d="M579.7,70.5c-28.6,0-56.3,5.8-82.3,17.1c-6.1,2.6-8.8,9.7-6.2,15.7c2,4.5,6.4,7.2,11,7.2
		c1.6,0,3.2-0.3,4.8-1c23-10,47.5-15.1,72.8-15.1c6.6,0,11.9-5.3,11.9-11.9S586.3,70.5,579.7,70.5z"/>
</g>
</svg>
