<?xml version="1.0" encoding="utf-8"?>
<!-- Generator: Adobe Illustrator 25.2.1, SVG Export Plug-In . SVG Version: 6.00 Build 0)  -->
<svg version="1.1" id="Layer_1" xmlns="http://www.w3.org/2000/svg" xmlns:xlink="http://www.w3.org/1999/xlink" x="0px" y="0px"
	 viewBox="0 0 803.1 810.9" enable-background="new 0 0 803.1 810.9" xml:space="preserve">
<g>
	<path fill="#1D1D1B" d="M138,87.1c-26.2,26.2-40.7,61.1-40.7,98.2c0,6.2,5,11.1,11.1,11.1c6.2,0,11.1-5,11.1-11.1
		c0-31.2,12.1-60.5,34.2-82.5c4.4-4.4,4.4-11.4,0-15.8C149.4,82.7,142.4,82.7,138,87.1z"/>
	<path fill="#1D1D1B" d="M236.3,46.4c-19.3,0-38,3.9-55.5,11.5c-5.6,2.5-8.2,9-5.7,14.7c1.8,4.2,5.9,6.7,10.2,6.7
		c1.5,0,3-0.3,4.5-0.9c14.7-6.4,30.4-9.7,46.6-9.7c6.2,0,11.1-5,11.1-11.1S242.4,46.4,236.3,46.4z"/>
	<path fill="#1D1D1B" d="M544.9,86.1c-47.7,0-93.6,13-133.8,37.6C385.2,50.2,315.4,0,236.2,0C134.1,0,50.9,83.1,50.9,185.3
		c0,102.2,83.1,185.3,185.3,185.3c17.5,0,34.7-2.5,51.2-7.3c2,28.2,8.6,55.7,19.8,81.9c-59.8,35.2-96.5,99-96.5,169.1
		c0,108.4,88.2,196.6,196.6,196.6c108.4,0,196.6-88.2,196.6-196.6c0-6.3-0.4-12.5-1-18.7C719.4,568.9,803.1,465,803.1,344.3
		C803.1,201.9,687.3,86.1,544.9,86.1z M73.2,185.3c0-89.9,73.1-163,163-163c71.5,0,134.4,46.6,155.6,114.2c-1.1,0.8-2.1,1.6-3.1,2.5
		c-2,1.5-3.9,3-5.8,4.5c-2.1,1.7-4.2,3.4-6.2,5.2c-1.8,1.6-3.7,3.2-5.4,4.8c-2,1.8-4,3.7-5.9,5.6c-1.7,1.7-3.4,3.3-5.1,5
		c-1.9,1.9-3.7,3.9-5.6,5.9c-1.6,1.7-3.2,3.5-4.8,5.3c-1.8,2.1-3.5,4.2-5.2,6.3c-1.5,1.8-3,3.6-4.4,5.5c-1.7,2.2-3.3,4.4-4.9,6.6
		c-1.4,1.9-2.7,3.7-4,5.6c-1.6,2.3-3,4.7-4.5,7c-1.2,1.9-2.5,3.8-3.6,5.7c-1.4,2.4-2.8,4.9-4.2,7.4c-1.1,1.9-2.2,3.9-3.2,5.8
		c-1.3,2.6-2.6,5.2-3.8,7.9c-0.9,1.9-1.9,3.8-2.8,5.7c-1.3,2.9-2.5,5.9-3.7,8.9c-0.7,1.7-1.4,3.3-2.1,5c-1.8,4.7-3.4,9.4-4.9,14.2
		c-0.5,1.4-0.8,2.9-1.2,4.4c-1,3.4-2,6.8-2.9,10.2c-0.5,2-0.9,4.1-1.4,6.2c-0.7,2.9-1.3,5.8-1.9,8.7c-0.4,2.2-0.7,4.5-1.1,6.7
		c-0.5,2.8-0.9,5.6-1.3,8.4c-0.3,2.3-0.5,4.6-0.7,6.9c-0.3,2.8-0.6,5.6-0.8,8.4c-0.2,2.3-0.2,4.7-0.3,7c-0.1,2.1-0.3,4.3-0.3,6.4
		c-16.2,5.3-33.2,8-50.5,8C146.3,348.3,73.2,275.2,73.2,185.3z M407.3,788.6c-96.1,0-174.3-78.2-174.3-174.3
		c0-65.2,35.9-124.4,93.7-154.5c24.5-13,52.4-19.9,80.6-19.9c16.1,0,31.8,2.2,46.7,6.5c64.7,18.2,115.6,73.4,125.7,142.3
		c1.3,8.3,1.9,16.9,1.9,25.6C581.6,710.4,503.4,788.6,407.3,788.6z M599.6,573.7c-0.2-1-0.6-2-0.8-3.1c-0.6-2.7-1.3-5.3-2-7.9
		c-0.8-3-1.6-5.9-2.6-8.9c-0.8-2.6-1.8-5.1-2.7-7.7c-1.1-2.9-2.2-5.7-3.3-8.5c-1.1-2.5-2.2-4.9-3.3-7.3c-1.3-2.7-2.6-5.4-4.1-8.1
		c-1.3-2.4-2.6-4.7-3.9-7c-1.5-2.6-3.1-5.1-4.7-7.6c-1.5-2.2-2.9-4.4-4.5-6.6c-1.7-2.4-3.5-4.8-5.4-7.2c-1.6-2.1-3.3-4.2-5-6.2
		c-1.9-2.3-3.9-4.5-6-6.7c-1.8-1.9-3.6-3.9-5.5-5.7c-2.1-2.1-4.3-4.1-6.6-6.2c-1.9-1.8-3.9-3.5-5.9-5.2c-2.3-1.9-4.7-3.8-7.1-5.6
		c-2.1-1.6-4.1-3.2-6.3-4.7c-2.5-1.8-5.1-3.4-7.6-5c-2.2-1.4-4.3-2.8-6.6-4.1c-2.7-1.6-5.4-3-8.2-4.4c-2.3-1.2-4.5-2.4-6.8-3.5
		c-2.9-1.4-5.8-2.5-8.7-3.8c-2.3-1-4.6-2-7-2.9c-3.1-1.1-6.2-2.1-9.3-3.1c-2.3-0.7-4.6-1.6-7-2.2c-3.3-0.9-6.7-1.6-10.1-2.3
		c-2.3-0.5-4.5-1.1-6.7-1.5c-3.8-0.7-7.6-1.1-11.5-1.6c-1.9-0.2-3.8-0.6-5.8-0.8c-5.8-0.5-11.7-0.8-17.6-0.8c-6.4,0-12.7,0.4-19,1
		c-0.9,0.1-1.8,0.1-2.7,0.2c-6,0.7-12,1.6-17.9,2.9c-1.1,0.2-2.1,0.4-3.2,0.7c-5.9,1.3-11.7,2.9-17.5,4.7c-0.8,0.3-1.6,0.6-2.4,0.8
		c-5.9,2-11.8,4.2-17.5,6.8c-0.1,0-0.1,0-0.2,0.1c-11.5-27.7-17.5-57-17.9-87.8c-0.1-0.9-0.1-1.8-0.1-2.7c0-19.4,2.4-38.5,7-56.9
		c13.7-55.2,47.2-104.3,95.1-137.3c39.4-27.3,85.7-41.7,133.8-41.7c130.1,0,235.9,105.8,235.9,235.9
		C780.8,454,705.3,548.8,599.6,573.7z"/>
	<path fill="#1D1D1B" d="M312.6,519.7c-25.3,25.3-39.2,58.9-39.2,94.6c0,6.2,5,11.1,11.1,11.1c6.2,0,11.1-5,11.1-11.1
		c0-29.8,11.6-57.8,32.7-78.8c4.4-4.4,4.4-11.4,0-15.8C324,515.3,317,515.3,312.6,519.7z"/>
	<path fill="#1D1D1B" d="M62.1,577.4c34.3,0,62.1-27.9,62.1-62.1c0-34.3-27.9-62.1-62.1-62.1C27.9,453.2,0,481.1,0,515.3
		C0,549.6,27.9,577.4,62.1,577.4z M62.1,475.5c22,0,39.8,17.9,39.8,39.8c0,22-17.9,39.8-39.8,39.8c-22,0-39.8-17.9-39.8-39.8
		C22.3,493.3,40.2,475.5,62.1,475.5z"/>
</g>
</svg>
