<?xml version="1.0" encoding="utf-8"?>
<!-- Generator: Adobe Illustrator 25.2.1, SVG Export Plug-In . SVG Version: 6.00 Build 0)  -->
<svg version="1.1" id="Layer_1" xmlns="http://www.w3.org/2000/svg" xmlns:xlink="http://www.w3.org/1999/xlink" x="0px" y="0px"
	 viewBox="0 0 857.2 805" enable-background="new 0 0 857.2 805" xml:space="preserve">
<g>
	<path fill="#1D1D1B" d="M676.9,204.1c-99.4,0-180.3,80.9-180.3,180.3c0,99.4,80.9,180.3,180.3,180.3c99.4,0,180.3-80.9,180.3-180.3
		C857.2,285,776.3,204.1,676.9,204.1z M676.9,540.8c-86.2,0-156.4-70.2-156.4-156.4c0-86.2,70.2-156.4,156.4-156.4
		c86.2,0,156.4,70.2,156.4,156.4C833.3,470.6,763.2,540.8,676.9,540.8z"/>
	<path fill="#1D1D1B" d="M589.8,297.2c-23.3,23.3-36.1,54.2-36.1,87.2c0,6.6,5.3,11.9,11.9,11.9c6.6,0,11.9-5.3,11.9-11.9
		c0-26.6,10.3-51.5,29.1-70.3c4.7-4.7,4.7-12.2,0-16.9C602,292.6,594.4,292.6,589.8,297.2z"/>
	<path fill="#1D1D1B" d="M688.9,703.9c0-55.8-45.4-101.1-101.1-101.1c-55.7,0-101.1,45.4-101.1,101.1c0,55.7,45.4,101.1,101.1,101.1
		C643.5,805,688.9,759.7,688.9,703.9z M510.6,703.9c0-42.6,34.6-77.2,77.2-77.2c42.6,0,77.2,34.7,77.2,77.2
		c0,42.6-34.6,77.2-77.2,77.2C545.2,781.2,510.6,746.5,510.6,703.9z"/>
	<path fill="#1D1D1B" d="M496,66.6c0,36.7,29.9,66.5,66.6,66.5c36.7,0,66.6-29.9,66.6-66.5c0-36.7-29.9-66.6-66.6-66.6
		C525.9,0,496,29.9,496,66.6z M605.2,66.6c0,23.5-19.1,42.7-42.7,42.7c-23.5,0-42.7-19.1-42.7-42.7c0-23.5,19.1-42.7,42.7-42.7
		C586.1,23.9,605.2,43,605.2,66.6z"/>
	<path fill="#1D1D1B" d="M236.4,791.2c130.3,0,236.3-106,236.3-236.3c0-85.7-46.6-164.2-120.3-205.8c48.2-33.4,77.4-88.3,77.4-147.9
		c0-99.4-80.9-180.3-180.3-180.3c-99.4,0-180.3,80.9-180.3,180.3c0,55,24.6,105.9,66.7,139.9C53.8,379.7,0,463,0,554.9
		C0,685.2,106,791.2,236.4,791.2z M93,201.2c0-86.2,70.2-156.4,156.4-156.4c86.2,0,156.4,70.2,156.4,156.4
		c0,58.2-32,111.2-83.4,138.3c-22.3,11.8-47.5,18.1-73,18.1c-7.3,0-14.6-0.5-21.9-1.5c-21.6-3-42.4-10.6-61.1-22.3c0,0,0,0,0,0
		C120.5,304.9,93,255.3,93,201.2z M158.9,357c1,0.6,2.1,1.1,3.1,1.7c1.6,0.9,3.3,1.8,4.9,2.7c2,1,4,2,6,2.9c1.7,0.8,3.4,1.6,5.1,2.3
		c2,0.9,4.1,1.7,6.2,2.5c1.7,0.7,3.4,1.3,5.2,2c2.1,0.8,4.3,1.4,6.4,2.1c1.7,0.5,3.5,1.1,5.2,1.6c2.2,0.6,4.5,1.1,6.7,1.7
		c1.7,0.4,3.4,0.8,5.1,1.2c2.4,0.5,4.8,0.9,7.1,1.3c1.6,0.3,3.3,0.6,4.9,0.8c2.7,0.4,5.4,0.6,8.1,0.9c1.4,0.1,2.7,0.3,4.1,0.4
		c4.1,0.3,8.2,0.4,12.3,0.4c7.1,0,14.2-0.5,21.2-1.3c2.4-0.3,4.7-0.8,7-1.2c4.6-0.7,9.2-1.5,13.8-2.5c2.8-0.7,5.5-1.6,8.2-2.4
		c4-1.2,8.1-2.3,12-3.8c2.9-1.1,5.6-2.3,8.4-3.5c2.7-1.2,5.5-2.1,8.2-3.4c73.4,35.2,120.6,109.8,120.6,191.6
		c0,117.1-95.3,212.4-212.4,212.4c-117.2,0-212.5-95.3-212.5-212.4C23.9,467.5,77.9,388.7,158.9,357z"/>
	<path fill="#1D1D1B" d="M128.4,430c-4.7-4.7-12.2-4.7-16.9,0c-33.4,33.4-51.7,77.7-51.7,124.9c0,6.6,5.3,11.9,11.9,11.9
		s11.9-5.3,11.9-11.9c0-40.8,15.9-79.1,44.7-108C133,442.2,133,434.7,128.4,430z"/>
	<path fill="#1D1D1B" d="M179.1,130.9c4.7-4.7,4.7-12.2,0-16.9c-4.7-4.7-12.2-4.7-16.9,0c-23.3,23.3-36.1,54.2-36.1,87.2
		c0,6.6,5.3,11.9,11.9,11.9c6.6,0,11.9-5.3,11.9-11.9C150,174.6,160.4,149.6,179.1,130.9z"/>
</g>
</svg>
