<?xml version="1.0" encoding="utf-8"?>
<!-- Generator: Adobe Illustrator 25.2.1, SVG Export Plug-In . SVG Version: 6.00 Build 0)  -->
<svg version="1.1" id="Layer_1" xmlns="http://www.w3.org/2000/svg" xmlns:xlink="http://www.w3.org/1999/xlink" x="0px" y="0px"
	 viewBox="0 0 988.2 800.9" enable-background="new 0 0 988.2 800.9" xml:space="preserve">
<g>
	<path fill="#1D1D1B" d="M83.8,184.4c46.2,0,83.8-37.6,83.8-83.8S130,16.8,83.8,16.8C37.6,16.8,0,54.4,0,100.6
		S37.6,184.4,83.8,184.4z M83.8,46.9c29.6,0,53.8,24.1,53.8,53.7c0,29.6-24.1,53.7-53.8,53.7c-29.6,0-53.7-24.1-53.7-53.7
		C30.1,71,54.2,46.9,83.8,46.9z"/>
	<path fill="#1D1D1B" d="M231.7,346.9c-125.2,0-227,101.8-227,227s101.8,227,227,227s227-101.8,227-227S356.9,346.9,231.7,346.9z
		 M231.7,770.8c-108.6,0-196.9-88.3-196.9-196.9c0-108.6,88.3-196.9,196.9-196.9c108.6,0,196.9,88.3,196.9,196.9
		C428.7,682.5,340.3,770.8,231.7,770.8z"/>
	<path fill="#1D1D1B" d="M122,464.1c-29.3,29.3-45.5,68.3-45.5,109.8c0,8.3,6.7,15,15,15s15-6.7,15-15c0-33.4,13-64.9,36.7-88.5
		c5.9-5.9,5.9-15.4,0-21.3C137.3,458.3,127.8,458.3,122,464.1z"/>
	<path fill="#1D1D1B" d="M593.1,117.2c-5.9-5.9-15.4-5.9-21.3,0c-29.3,29.3-45.5,68.3-45.5,109.8c0,8.3,6.7,15,15,15
		c8.3,0,15-6.7,15-15c0-33.4,13-64.9,36.7-88.5C599,132.6,599,123.1,593.1,117.2z"/>
	<path fill="#1D1D1B" d="M882.6,332.6c17.1-32.3,26-68.4,26-105.5c0-125.2-101.8-227-227-227s-227,101.8-227,227
		c0,78.2,40.1,150.3,105.6,191.8c-17.1,32.3-26,68.4-26,105.5c0,125.2,101.8,227,227,227c125.2,0,227-101.8,227-227
		C988.2,446.2,948.1,374.1,882.6,332.6z M484.7,227c0-108.6,88.3-196.9,196.9-196.9c108.6,0,196.9,88.3,196.9,196.9
		c0,32.1-7.7,63.3-22.4,91.2c-0.2-0.1-0.4-0.2-0.7-0.3c-6.6-3-13.4-5.6-20.2-8c-1-0.3-2-0.7-2.9-1c-6.8-2.2-13.6-4.1-20.6-5.7
		c-1.3-0.3-2.6-0.6-3.9-0.9c-7-1.5-14-2.6-21-3.4c-1.1-0.1-2.2-0.2-3.4-0.3c-7.4-0.7-14.9-1.2-22.3-1.2c-8.8,0-17.6,0.6-26.2,1.6
		c-0.7,0.1-1.3,0.1-2,0.2c-8.2,1-16.3,2.5-24.3,4.4c-1,0.2-2,0.4-3,0.7c-7.7,1.9-15.3,4.3-22.8,7c-1.1,0.4-2.2,0.8-3.3,1.2
		c-7.3,2.8-14.5,6-21.4,9.5c-1.1,0.5-2.1,1.1-3.2,1.7c-6.9,3.7-13.7,7.7-20.2,12c-0.9,0.6-1.8,1.3-2.8,1.9
		c-6.5,4.5-12.9,9.4-18.9,14.6c-0.7,0.6-1.4,1.3-2.1,1.9c-6.2,5.5-12.1,11.2-17.6,17.4c-0.4,0.4-0.8,0.9-1.2,1.4
		c-5.8,6.5-11.3,13.3-16.3,20.4c0,0,0,0,0,0C519.3,357.2,484.7,294.7,484.7,227z M761.2,721.3c-108.6,0-196.9-88.3-196.9-197
		c0-36.7,10.1-72.3,29.2-103.1c36.2-58.8,98.9-93.9,167.8-93.9c9.4,0,18.7,0.9,28,2.2c14.9,2.2,29.6,5.8,43.6,11.3
		c7.6,3,15,6.4,22.2,10.3c63.6,34.5,103.1,100.9,103.1,173.2C958.1,633,869.8,721.3,761.2,721.3z"/>
	<path fill="#1D1D1B" d="M651.4,414.6c-29.3,29.3-45.5,68.3-45.5,109.8c0,8.3,6.7,15,15,15c8.3,0,15-6.7,15-15
		c0-33.4,13-64.9,36.7-88.5c5.9-5.9,5.9-15.4,0-21.3C666.8,408.7,657.3,408.7,651.4,414.6z"/>
</g>
</svg>
