<?xml version="1.0" encoding="utf-8"?>
<!-- Generator: Adobe Illustrator 25.2.1, SVG Export Plug-In . SVG Version: 6.00 Build 0)  -->
<svg version="1.1" id="Layer_1" xmlns="http://www.w3.org/2000/svg" xmlns:xlink="http://www.w3.org/1999/xlink" x="0px" y="0px"
	 viewBox="0 0 822.9 800.6" enable-background="new 0 0 822.9 800.6" xml:space="preserve">
<g>
	<path fill="#1D1D1B" d="M148.9,563.1c82.1,0,148.9-66.8,148.9-148.9c0-82.1-66.8-148.9-148.9-148.9S0,332.1,0,414.2
		C0,496.3,66.8,563.1,148.9,563.1z M148.9,288.1c69.5,0,126.1,56.6,126.1,126.1s-56.6,126.1-126.1,126.1S22.8,483.7,22.8,414.2
		S79.4,288.1,148.9,288.1z"/>
	<path fill="#1D1D1B" d="M74.9,414.2c0-19.8,7.7-38.3,21.7-52.3c4.5-4.5,4.5-11.7,0-16.1c-4.5-4.5-11.7-4.5-16.1,0
		c-18.3,18.3-28.3,42.6-28.3,68.4c0,6.3,5.1,11.4,11.4,11.4C69.8,425.6,74.9,420.5,74.9,414.2z"/>
	<path fill="#1D1D1B" d="M135.7,113c0,35.1,28.5,63.6,63.6,63.6c35.1,0,63.6-28.5,63.6-63.6c0-35.1-28.5-63.6-63.6-63.6
		C164.3,49.4,135.7,78,135.7,113z M240.1,113c0,22.5-18.3,40.8-40.8,40.8c-22.5,0-40.8-18.3-40.8-40.8c0-22.5,18.3-40.8,40.8-40.8
		C221.8,72.2,240.1,90.5,240.1,113z"/>
	<path fill="#1D1D1B" d="M558.6,0C412.8,0,294.2,118.6,294.2,264.3c0,94.3,49.2,179.9,129.4,227.4c-33.1,30.2-52.7,71.5-55.4,116.8
		c-47.5,6.4-83.4,46.5-83.4,95.5c0,53.3,43.3,96.6,96.6,96.6c28,0,54.4-12.2,72.5-32.9c26.1,15.1,55.6,23.1,86,23.1
		c95,0,172.3-77.2,172.3-172.1c0-42.2-15.6-82.9-43.3-114.2c92.7-42.7,154-137.1,154-240.2C822.9,118.6,704.3,0,558.6,0z
		 M381.5,777.8c-40.7,0-73.8-33.1-73.8-73.8c0-35.7,26.3-66.1,60.5-72.4c0,0.5,0.1,1,0.2,1.5c0.4,5.2,1.1,10.3,2,15.3
		c0.1,0.6,0.2,1.2,0.3,1.8c1,5.2,2.2,10.4,3.7,15.4c0.3,1,0.6,2,0.9,3c1.5,5,3.2,9.8,5.1,14.6c0.3,0.9,0.7,1.7,1.1,2.5
		c2.1,5,4.4,9.9,6.9,14.6c0,0,0,0.1,0,0.1c2.6,4.7,5.4,9.3,8.4,13.8c0.5,0.7,1,1.5,1.5,2.2c3,4.3,6.1,8.4,9.5,12.4
		c0.6,0.8,1.3,1.5,2,2.3c3.5,4,7.1,7.9,11,11.6c0.4,0.4,0.9,0.8,1.3,1.2c3.8,3.5,7.7,6.9,11.8,10.1c0.4,0.3,0.7,0.7,1.1,1
		C421.1,769.4,401.9,777.8,381.5,777.8z M540,768c-29.4,0-57.9-8.6-82.4-24.8c-41.9-27.6-67-74-67.1-124.5
		c0-47.6,21.9-91.3,60-119.8c25.9-19.4,56.8-29.7,89.4-29.7c4.7,0,9.4,0.2,14.1,0.7c27.9,2.6,54.4,13,76.6,30
		c3.7,2.8,7.3,5.9,10.7,9.1c0,0,0,0,0,0c0,0,0,0,0,0c30.5,28.1,48,68.1,48,109.7C689.4,701,622.4,768,540,768z M651.5,487.4
		c-1.2-1-2.6-2-3.8-3c-1.8-1.5-3.7-2.9-5.6-4.3c-2.3-1.7-4.7-3.4-7.2-5c-1.9-1.3-3.8-2.6-5.8-3.7c-2.5-1.5-5.1-2.9-7.7-4.3
		c-2-1.1-4-2.2-6-3.2c-2.7-1.3-5.4-2.5-8.1-3.6c-2-0.9-4.1-1.8-6.1-2.6c-2.8-1.1-5.7-2-8.6-2.9c-2-0.7-4.1-1.4-6.1-2
		c-3-0.9-6.1-1.5-9.2-2.2c-2-0.4-4-1-6-1.3c-3.4-0.6-6.9-1-10.4-1.5c-1.7-0.2-3.4-0.5-5.2-0.7c-5.2-0.5-10.5-0.7-15.8-0.7
		c-4.5,0-9.1,0.2-13.6,0.5c-1.5,0.1-3,0.3-4.5,0.5c-3,0.3-5.9,0.6-8.8,1.1c-1.8,0.3-3.5,0.7-5.3,1c-2.6,0.5-5.2,1-7.8,1.6
		c-1.9,0.4-3.7,1-5.5,1.5c-2.4,0.7-4.9,1.3-7.3,2.1c-1.9,0.6-3.7,1.3-5.6,1.9c-2.3,0.8-4.6,1.7-6.9,2.6c-1.8,0.8-3.7,1.6-5.5,2.4
		c-2.2,1-4.4,2-6.6,3.1c-1.8,0.9-3.6,1.9-5.3,2.8c-2.1,1.2-4.3,2.4-6.4,3.7c-1.7,1-3.4,2.1-5.1,3.2c-1,0.7-2,1.2-3,1.9
		C365,434,317.1,353.4,317.1,264.3c0-133.2,108.3-241.5,241.5-241.5c133.2,0,241.5,108.3,241.5,241.5
		C800.1,361.4,740.6,450.2,651.5,487.4z"/>
	<path fill="#1D1D1B" d="M419.2,125.1c-37.2,37.2-57.7,86.7-57.7,139.3c0,6.3,5.1,11.4,11.4,11.4c6.3,0,11.4-5.1,11.4-11.4
		c0-46.5,18.1-90.3,51-123.2c4.5-4.5,4.5-11.7,0-16.1C430.9,120.6,423.7,120.6,419.2,125.1z"/>
	<path fill="#1D1D1B" d="M558.6,67.4c-27.4,0-53.8,5.5-78.7,16.3c-5.8,2.5-8.4,9.2-5.9,15c1.9,4.3,6.1,6.9,10.5,6.9
		c1.5,0,3.1-0.3,4.6-0.9c22-9.6,45.4-14.4,69.6-14.4c6.3,0,11.4-5.1,11.4-11.4C570,72.5,564.9,67.4,558.6,67.4z"/>
	<path fill="#1D1D1B" d="M456.7,535.3c-22.2,22.2-34.5,51.8-34.5,83.3c0,6.3,5.1,11.4,11.4,11.4c6.3,0,11.4-5.1,11.4-11.4
		c0-25.4,9.9-49.2,27.8-67.2c4.5-4.5,4.5-11.7,0-16.1C468.3,530.9,461.1,530.9,456.7,535.3z"/>
</g>
</svg>
