<?xml version="1.0" encoding="utf-8"?>
<!-- Generator: Adobe Illustrator 25.2.1, SVG Export Plug-In . SVG Version: 6.00 Build 0)  -->
<svg version="1.1" id="Layer_1" xmlns="http://www.w3.org/2000/svg" xmlns:xlink="http://www.w3.org/1999/xlink" x="0px" y="0px"
	 viewBox="0 0 835.2 801.7" enable-background="new 0 0 835.2 801.7" xml:space="preserve">
<g>
	<path fill="#1D1D1B" d="M60.6,458.8c33.4,0,60.6-27.2,60.6-60.6c0-33.4-27.2-60.6-60.6-60.6C27.2,337.5,0,364.7,0,398.2
		C0,431.6,27.2,458.8,60.6,458.8z M60.6,359.3c21.4,0,38.9,17.4,38.9,38.9c0,21.4-17.4,38.9-38.9,38.9c-21.4,0-38.9-17.4-38.9-38.9
		C21.8,376.7,39.2,359.3,60.6,359.3z"/>
	<g>
		<path fill="#1D1D1B" d="M278.2,298.9c78.3,0,142-63.7,142-142c0-78.3-63.7-142-142-142c-78.3,0-142,63.7-142,142
			C136.2,235.2,199.9,298.9,278.2,298.9z M278.2,36.7c66.3,0,120.2,53.9,120.2,120.2c0,66.3-53.9,120.2-120.2,120.2
			S158,223.2,158,156.9C158,90.6,211.9,36.7,278.2,36.7z"/>
		<path fill="#1D1D1B" d="M207.7,156.9c0-18.8,7.3-36.5,20.7-49.9c4.2-4.2,4.2-11.1,0-15.4c-4.2-4.2-11.1-4.2-15.4,0
			c-17.4,17.4-27,40.6-27,65.2c0,6,4.9,10.9,10.9,10.9C202.8,167.8,207.7,162.9,207.7,156.9z"/>
		<path fill="#1D1D1B" d="M634.1,92.1c0-50.8-41.3-92.1-92.1-92.1c-50.8,0-92.1,41.3-92.1,92.1c0,50.8,41.3,92.1,92.1,92.1
			C592.7,184.2,634.1,142.9,634.1,92.1z M471.6,92.1c0-38.8,31.6-70.4,70.4-70.4s70.4,31.6,70.4,70.4c0,38.8-31.6,70.4-70.4,70.4
			S471.6,130.9,471.6,92.1z"/>
		<path fill="#1D1D1B" d="M654.3,187.1c-76.3,0-144.7,48.9-170.2,120c-22-6.2-44.7-9.5-67.8-9.5c-139,0-252,113.1-252,252
			c0,139,113.1,252,252,252c139,0,252-113.1,252-252c0-0.5,0-1.1,0-1.6c93-7.2,166.9-85.6,166.9-180.1
			C835.2,268.3,754,187.1,654.3,187.1z M646.6,549.7c0,127-103.3,230.3-230.3,230.3C289.3,780,186,676.7,186,549.7
			s103.3-230.3,230.3-230.3c21,0,41.7,2.8,61.7,8.4c-0.1,0.3-0.1,0.5-0.1,0.8c-1.3,5.7-2.3,11.6-3,17.4c-0.2,1.3-0.3,2.7-0.4,4
			c-0.6,6-1,12-1,18.1c0,6.2,0.3,12.2,0.9,18.2c0.2,2.1,0.6,4.1,0.9,6.1c0.5,3.9,1,7.8,1.8,11.6c0.5,2.4,1.2,4.6,1.7,7
			c0.8,3.4,1.6,6.8,2.6,10.1c0.7,2.4,1.7,4.8,2.6,7.2c1.1,3.1,2.1,6.2,3.4,9.2c1,2.4,2.2,4.7,3.3,7.1c1.3,2.9,2.6,5.8,4.1,8.5
			c1.3,2.3,2.7,4.6,4,6.8c1.6,2.7,3.1,5.4,4.8,7.9c1.5,2.2,3.1,4.4,4.7,6.5c1.8,2.5,3.5,4.9,5.4,7.3c1.7,2.1,3.6,4.1,5.4,6.1
			c2,2.2,4,4.5,6.1,6.7c1.9,1.9,3.9,3.8,5.9,5.6c2.2,2,4.4,4.1,6.6,6c2.1,1.8,4.3,3.4,6.5,5.1c2.4,1.8,4.7,3.7,7.2,5.4
			c2.3,1.6,4.6,3,6.9,4.5c2.5,1.6,5.1,3.2,7.7,4.7c2.4,1.4,4.9,2.6,7.4,3.8c2.7,1.3,5.4,2.7,8.1,3.9c2.5,1.1,5.2,2.1,7.8,3.1
			c2.8,1.1,5.6,2.2,8.5,3.1c2.7,0.9,5.4,1.6,8.1,2.4c2.9,0.8,5.9,1.6,8.9,2.3c2.8,0.6,5.6,1.1,8.5,1.6c3,0.5,6.1,1,9.1,1.4
			c2.9,0.4,5.8,0.6,8.7,0.8c1.9,0.1,3.7,0.4,5.5,0.5C646.6,549.1,646.6,549.4,646.6,549.7z M656.9,527.1c-0.3,0-0.8,0-1.1,0.1
			c-0.5,0-1,0-1.5,0c-87.8,0-159.1-71.4-159.1-159.1c0-4.1,0.2-8.1,0.5-12.1c0.8-11,2.8-21.9,5.9-32.5
			C521.2,256,584,208.9,654.3,208.9c87.8,0,159.1,71.4,159.1,159.1C813.4,454.4,743.2,525.7,656.9,527.1z"/>
		<path fill="#1D1D1B" d="M283.4,416.8c-35.5,35.5-55,82.7-55,132.8c0,6,4.9,10.9,10.9,10.9c6,0,10.9-4.9,10.9-10.9
			c0-44.4,17.3-86.1,48.7-117.5c4.2-4.2,4.2-11.1,0-15.4C294.6,412.6,287.7,412.6,283.4,416.8z"/>
		<path fill="#1D1D1B" d="M416.3,361.8c-26.1,0-51.3,5.2-75,15.6c-5.5,2.4-8,8.8-5.6,14.3c1.8,4.1,5.8,6.5,10,6.5
			c1.4,0,2.9-0.3,4.3-0.9c21-9.1,43.3-13.8,66.3-13.8c6,0,10.9-4.9,10.9-10.9C427.2,366.7,422.3,361.8,416.3,361.8z"/>
		<path fill="#1D1D1B" d="M558.3,272.1c-25.6,25.6-39.7,59.7-39.7,95.9c0,6,4.9,10.9,10.9,10.9c6,0,10.9-4.9,10.9-10.9
			c0-30.4,11.8-59,33.4-80.5c4.2-4.2,4.2-11.1,0-15.4C569.5,267.9,562.6,267.9,558.3,272.1z"/>
		<path fill="#1D1D1B" d="M654.2,232.4c-18.8,0-37.1,3.8-54.2,11.3c-5.5,2.4-8,8.8-5.6,14.3c1.8,4.1,5.8,6.5,10,6.5
			c1.4,0,2.9-0.3,4.3-0.9c14.4-6.3,29.7-9.4,45.5-9.4c6,0,10.9-4.9,10.9-10.9C665.1,237.3,660.3,232.4,654.2,232.4z"/>
	</g>
</g>
</svg>
