<?xml version="1.0" encoding="utf-8"?>
<!-- Generator: Adobe Illustrator 25.2.1, SVG Export Plug-In . SVG Version: 6.00 Build 0)  -->
<svg version="1.1" id="Layer_1" xmlns="http://www.w3.org/2000/svg" xmlns:xlink="http://www.w3.org/1999/xlink" x="0px" y="0px"
	 viewBox="0 0 861.6 801.7" enable-background="new 0 0 861.6 801.7" xml:space="preserve">
<g>
	<path fill="#1D1D1B" d="M717.5,475.5c-56.2,0-101.9,45.7-101.9,101.9c0,56.2,45.7,101.9,101.9,101.9c56.2,0,101.8-45.7,101.8-101.9
		C819.4,521.2,773.7,475.5,717.5,475.5z M717.5,655.2c-42.9,0-77.8-34.9-77.8-77.8c0-42.9,34.9-77.8,77.8-77.8s77.8,34.9,77.8,77.8
		C795.3,620.3,760.4,655.2,717.5,655.2z"/>
	<path fill="#1D1D1B" d="M189.6,557.5c-4.8,16.9-7.3,34.3-7.3,52.1c0,106,86.2,192.2,192.1,192.2c106,0,192.2-86.2,192.2-192.2
		c0-56.9-24.6-109.2-67.4-145.7c6.9-8.9,13.1-18,18.7-27.3c34,18.6,72.1,28.4,111.2,28.4c128.2,0,232.5-104.3,232.5-232.5
		C861.6,104.3,757.3,0,629.1,0c-67.2,0-129.9,28.5-173.9,78.5C405.5,37.7,343.4,15,278.7,15C125,15,0,140,0,293.7
		C0,413.2,77.5,519.8,189.6,557.5z M542.5,609.5c0,92.7-75.4,168.1-168.1,168.1c-92.6,0-168-75.4-168-168.1
		c0-19.2,3.2-37.9,9.5-55.8c23.5-67.2,87.2-112.3,158.5-112.3c9.2,0,18.2,0.7,27.1,2.2c17.8,2.9,34.9,8.6,50.8,17
		c8,4.2,15.6,9,23,14.6c0,0,0,0,0,0l0,0C518,507.1,542.5,556.1,542.5,609.5z M629.1,24.1c114.9,0,208.4,93.5,208.4,208.4
		c0,114.9-93.5,208.4-208.4,208.4c-35.1,0-69.4-8.8-99.8-25.5c0.4-0.9,0.8-1.8,1.2-2.6c1-2.2,2-4.4,3-6.6c1.2-2.8,2.5-5.7,3.6-8.5
		c0.9-2.3,1.8-4.5,2.6-6.8c1.1-2.9,2.1-5.8,3.1-8.7c0.8-2.3,1.5-4.6,2.2-6.9c0.9-3,1.8-6,2.6-9c0.6-2.3,1.2-4.6,1.8-6.9
		c0.7-3.1,1.4-6.2,2.1-9.3c0.5-2.3,1-4.5,1.4-6.8c0.6-3.3,1.1-6.6,1.5-9.8c0.3-2.2,0.7-4.3,0.9-6.5c0.4-3.6,0.7-7.3,1-10.9
		c0.1-1.8,0.4-3.7,0.5-5.5c0.3-5.5,0.5-11,0.5-16.5c0-4.8-0.1-9.6-0.4-14.4c-0.1-1.6-0.3-3.2-0.4-4.8c-0.2-3.2-0.4-6.3-0.8-9.5
		c-0.2-1.9-0.5-3.8-0.7-5.7c-0.4-2.8-0.7-5.6-1.1-8.4c-0.3-2-0.7-4.1-1.1-6.1c-0.5-2.6-0.9-5.3-1.5-7.9c-0.4-2.1-0.9-4.2-1.4-6.2
		c-0.6-2.5-1.2-5.1-1.8-7.6c-0.6-2.1-1.2-4.2-1.8-6.3c-0.7-2.4-1.4-4.9-2.2-7.3c-0.7-2.1-1.4-4.2-2.1-6.3c-0.8-2.4-1.6-4.7-2.5-7.1
		c-0.8-2.1-1.6-4.2-2.5-6.3c-0.9-2.3-1.9-4.6-2.9-6.9c-0.9-2.1-1.8-4.1-2.8-6.2c-1-2.2-2.1-4.5-3.2-6.7c-1-2-2-4-3.1-6.1
		c-1.1-2.2-2.3-4.3-3.5-6.5c-1.1-2-2.3-4-3.4-6c-1.2-2.1-2.5-4.2-3.8-6.2c-1.2-1.9-2.5-3.9-3.7-5.8c-1.4-2-2.8-4.1-4.2-6.1
		c-1.3-1.9-2.6-3.7-4-5.6c-1.5-2-3-3.9-4.5-5.9c-1.4-1.8-2.8-3.6-4.3-5.4c-1.6-1.9-3.2-3.8-4.9-5.7c-1.5-1.7-3-3.4-4.5-5.1
		c-1.7-1.9-3.5-3.7-5.3-5.5c-1.6-1.6-3.1-3.2-4.7-4.8c-0.4-0.4-0.7-0.8-1.1-1.1C512.7,49.5,568.9,24.1,629.1,24.1z M278.7,39.1
		c63,0,123.4,23.2,170.1,65.2c53.7,48.1,84.5,117.2,84.5,189.4c0,5.3-0.2,10.5-0.5,15.8c-0.3,5.6-0.9,11.1-1.6,16.6
		c-4,30.9-13.6,61-28.4,88.4c-6.3,11.9-13.9,23.5-22.6,34.7c-0.6-0.4-1.2-0.7-1.8-1.1c-1.7-1.1-3.5-2.1-5.2-3.2
		c-2.5-1.5-5-3-7.6-4.4c-1.8-1-3.7-1.9-5.5-2.8c-2.6-1.3-5.1-2.5-7.8-3.7c-1.9-0.8-3.8-1.7-5.7-2.4c-2.6-1.1-5.3-2.1-8-3
		c-2-0.7-3.9-1.4-5.9-2c-2.7-0.9-5.5-1.7-8.3-2.4c-2-0.5-3.9-1.1-5.9-1.5c-2.9-0.7-5.9-1.2-8.8-1.8c-1.9-0.4-3.8-0.7-5.7-1
		c-3.3-0.5-6.6-0.9-9.9-1.2c-1.6-0.2-3.2-0.4-4.9-0.5c-4.9-0.4-9.9-0.6-14.9-0.6c-5,0-9.9,0.2-14.8,0.6c-1.7,0.1-3.3,0.4-5,0.6
		c-3.2,0.3-6.4,0.6-9.6,1.1c-1.9,0.3-3.8,0.7-5.8,1.1c-2.8,0.5-5.7,1-8.5,1.7c-2,0.5-4,1.1-6,1.6c-2.6,0.7-5.3,1.4-7.9,2.2
		c-2.1,0.7-4.1,1.4-6.1,2.1c-2.5,0.9-5,1.7-7.4,2.7c-2.1,0.8-4.1,1.7-6.1,2.6c-2.3,1-4.7,2-6.9,3.2c-2,1-4,2.1-6,3.1
		c-2.2,1.2-4.4,2.3-6.5,3.6c-2,1.2-3.9,2.4-5.8,3.6c-2.1,1.3-4.1,2.6-6.2,4c-1.9,1.3-3.8,2.7-5.6,4c-2,1.4-3.9,2.9-5.8,4.4
		c-1.8,1.5-3.6,3-5.4,4.5c-1.8,1.6-3.6,3.2-5.4,4.8c-1.7,1.6-3.4,3.2-5.1,4.9c-1.7,1.7-3.4,3.5-5,5.2c-1.6,1.7-3.2,3.5-4.7,5.2
		c-1.6,1.8-3.1,3.7-4.6,5.6c-1.5,1.8-2.9,3.7-4.3,5.6c-1.5,2-2.9,4-4.2,6.1c-1.3,1.9-2.6,3.9-3.9,5.8c-1.3,2.1-2.6,4.3-3.9,6.6
		c-1.1,2-2.3,4-3.3,6c-1.2,2.3-2.4,4.8-3.5,7.2c-0.9,2-1.9,4-2.8,6c-0.2,0.6-0.5,1.1-0.8,1.7C94.8,500.6,24.1,403,24.1,293.7
		C24.1,153.3,138.3,39.1,278.7,39.1z"/>
	<path fill="#1D1D1B" d="M148.8,146.8c-4.7-4.7-12.3-4.7-17,0C92.5,186,70.9,238.2,70.9,293.7c0,6.6,5.4,12,12,12
		c6.6,0,12-5.4,12-12c0-49.1,19.1-95.2,53.8-129.9C153.5,159.1,153.5,151.5,148.8,146.8z"/>
	<path fill="#1D1D1B" d="M200.5,126.2c1.6,0,3.2-0.3,4.8-1c23.2-10.1,47.9-15.2,73.4-15.2c6.6,0,12-5.4,12-12c0-6.6-5.4-12-12-12
		c-28.8,0-56.7,5.8-83,17.2c-6.1,2.7-8.9,9.7-6.2,15.8C191.4,123.5,195.9,126.2,200.5,126.2z"/>
	<path fill="#1D1D1B" d="M281.7,516.8c-24.8,24.8-38.4,57.7-38.4,92.8c0,6.6,5.4,12,12,12c6.6,0,12-5.4,12-12
		c0-28.6,11.1-55.5,31.4-75.8c4.7-4.7,4.7-12.3,0-17C294,512.1,286.4,512.1,281.7,516.8z"/>
</g>
</svg>
