<?xml version="1.0" encoding="utf-8"?>
<!-- Generator: Adobe Illustrator 25.2.1, SVG Export Plug-In . SVG Version: 6.00 Build 0)  -->
<svg version="1.1" id="Layer_1" xmlns="http://www.w3.org/2000/svg" xmlns:xlink="http://www.w3.org/1999/xlink" x="0px" y="0px"
	 viewBox="0 0 801.7 885.2" enable-background="new 0 0 801.7 885.2" xml:space="preserve">
<g>
	<path fill="#1D1D1B" d="M567.1,83.2c-129.4,0-234.6,105.2-234.6,234.5c0,28.4,5.3,55.9,15.1,82c-63.1,20.6-106.1,79.1-106.1,146.8
		c0,85.3,69.4,154.7,154.6,154.7c83.6,0,151.7-66.7,154.4-149.6c5.4,0.4,10.9,0.6,16.6,0.6c129.3,0,234.5-105.2,234.5-234.5
		C801.7,188.4,696.5,83.2,567.1,83.2z M396.1,677.5c-72.2,0-130.9-58.7-130.9-131c0-61.1,41.5-113.5,101-127.4
		c9.6-2.4,19.6-3.6,30-3.6c4.3,0,8.6,0.2,12.9,0.6c63.6,6.2,114.3,58,117.9,123.1c0.1,2.4,0.2,4.8,0.2,7.2
		C527.1,618.8,468.3,677.5,396.1,677.5z M567.1,528.6c-6,0-11.9-0.2-17.5-0.7c-0.1-0.9-0.3-1.7-0.4-2.6c-0.3-2.3-0.7-4.5-1.1-6.8
		c-0.5-2.6-1-5.1-1.6-7.6c-0.5-2.2-1.1-4.4-1.8-6.6c-0.7-2.4-1.4-4.9-2.2-7.3c-0.7-2.2-1.5-4.3-2.4-6.4c-0.9-2.3-1.9-4.6-2.9-6.9
		c-0.9-2.1-1.9-4.1-2.9-6.2c-1.1-2.2-2.3-4.4-3.5-6.5c-1.1-2-2.3-3.9-3.5-5.9c-1.3-2.1-2.6-4.1-4-6.1c-1.3-1.9-2.6-3.7-4-5.5
		c-1.5-1.9-3-3.8-4.6-5.7c-1.4-1.7-2.9-3.5-4.4-5.1c-1.6-1.8-3.3-3.5-5.1-5.2c-1.6-1.6-3.2-3.2-4.8-4.7c-1.8-1.6-3.7-3.2-5.5-4.8
		c-1.7-1.4-3.4-2.9-5.2-4.2c-2-1.5-4-2.9-6-4.3c-1.8-1.3-3.6-2.5-5.5-3.7c-2.1-1.3-4.3-2.5-6.5-3.8c-1.9-1.1-3.8-2.2-5.8-3.2
		c-2.3-1.2-4.7-2.2-7-3.2c-2-0.9-3.9-1.8-5.9-2.6c-2.5-1-5-1.8-7.6-2.7c-2-0.7-3.9-1.4-5.9-2c-2.7-0.8-5.5-1.4-8.3-2.1
		c-1.9-0.4-3.8-1-5.7-1.4c-3.1-0.6-6.4-1-9.6-1.4c-1.7-0.2-3.3-0.5-4.9-0.7c-4.9-0.5-9.9-0.7-14.9-0.7c-5.5,0-10.8,0.4-16.2,1
		c-1.5,0.2-3,0.4-4.5,0.6c-1.7,0.2-3.3,0.4-5,0.6c-9.5-24.3-14.3-49.9-14.3-76.4c0-116.2,94.6-210.8,210.9-210.8
		c116.2,0,210.8,94.6,210.8,210.8C778,434,683.4,528.6,567.1,528.6z"/>
	<path fill="#1D1D1B" d="M443.2,193.8c-33.1,33.1-51.3,77.1-51.3,123.9c0,6.5,5.3,11.9,11.9,11.9s11.9-5.3,11.9-11.9
		c0-40.5,15.8-78.6,44.4-107.2c4.6-4.6,4.6-12.1,0-16.8C455.3,189.2,447.8,189.2,443.2,193.8z"/>
	<path fill="#1D1D1B" d="M567.1,142.5c-24.3,0-47.9,4.9-70,14.5c-6,2.6-8.7,9.6-6.1,15.6c1.9,4.5,6.3,7.1,10.9,7.1
		c1.6,0,3.2-0.3,4.7-1c19.1-8.3,39.5-12.6,60.5-12.6c6.5,0,11.9-5.3,11.9-11.9C579,147.8,573.7,142.5,567.1,142.5z"/>
	<path fill="#1D1D1B" d="M325.1,475.5c-19,19-29.4,44.2-29.4,71.1c0,6.5,5.3,11.9,11.9,11.9s11.9-5.3,11.9-11.9
		c0-20.5,8-39.8,22.5-54.3c4.6-4.6,4.6-12.1,0-16.8C337.2,470.9,329.7,470.9,325.1,475.5z"/>
	<path fill="#1D1D1B" d="M655.6,576.1c-55.3,0-100.3,45-100.3,100.4c0,55.3,45,100.4,100.3,100.4c55.3,0,100.4-45,100.4-100.4
		C756,621.1,710.9,576.1,655.6,576.1z M655.6,753.1c-42.3,0-76.6-34.4-76.6-76.7c0-42.3,34.4-76.7,76.6-76.7s76.7,34.4,76.7,76.7
		C732.3,718.7,697.9,753.1,655.6,753.1z"/>
	<path fill="#1D1D1B" d="M200.7,525.8c0-55.3-45-100.4-100.4-100.4C45,425.4,0,470.5,0,525.8c0,55.3,45,100.4,100.3,100.4
		C155.7,626.2,200.7,581.1,200.7,525.8z M23.7,525.8c0-42.3,34.4-76.7,76.6-76.7s76.7,34.4,76.7,76.7s-34.4,76.7-76.7,76.7
		S23.7,568.1,23.7,525.8z"/>
	<path fill="#1D1D1B" d="M303.5,132.1c36.4,0,66.1-29.6,66.1-66.1c0-36.4-29.6-66.1-66.1-66.1c-36.4,0-66.1,29.6-66.1,66.1
		C237.4,102.5,267.1,132.1,303.5,132.1z M303.5,23.7c23.4,0,42.4,19,42.4,42.4c0,23.4-19,42.4-42.4,42.4c-23.4,0-42.4-19-42.4-42.4
		C261.1,42.7,280.1,23.7,303.5,23.7z"/>
	<path fill="#1D1D1B" d="M237.4,819.1c0,36.4,29.6,66.1,66.1,66.1c36.4,0,66.1-29.6,66.1-66.1c0-36.4-29.6-66.1-66.1-66.1
		C267.1,753.1,237.4,782.7,237.4,819.1z M345.9,819.1c0,23.4-19,42.4-42.4,42.4c-23.4,0-42.4-19-42.4-42.4c0-23.4,19-42.4,42.4-42.4
		C326.8,776.8,345.9,795.8,345.9,819.1z"/>
</g>
</svg>
