<?xml version="1.0" encoding="utf-8"?>
<!-- Generator: Adobe Illustrator 25.2.1, SVG Export Plug-In . SVG Version: 6.00 Build 0)  -->
<svg version="1.1" id="Layer_1" xmlns="http://www.w3.org/2000/svg" xmlns:xlink="http://www.w3.org/1999/xlink" x="0px" y="0px"
	 viewBox="0 0 802.5 815.8" enable-background="new 0 0 802.5 815.8" xml:space="preserve">
<g>
	<path fill="#1D1D1B" d="M296.1,96.3c-29.3,29.3-45.5,68.4-45.5,109.8c0,6.3,5.1,11.3,11.3,11.3c6.3,0,11.3-5.1,11.3-11.3
		c0-35.4,13.8-68.8,38.9-93.8c4.4-4.4,4.4-11.6,0-16C307.7,91.9,300.5,91.9,296.1,96.3z"/>
	<path fill="#1D1D1B" d="M348.4,85.4c1.5,0,3-0.3,4.5-1c16.7-7.3,34.6-11,53-11c6.3,0,11.3-5.1,11.3-11.3c0-6.3-5.1-11.3-11.3-11.3
		c-21.6,0-42.4,4.3-62,12.9c-5.7,2.5-8.3,9.2-5.8,14.9C339.9,82.9,344.1,85.4,348.4,85.4z"/>
	<path fill="#1D1D1B" d="M676.3,272.9c0,34.8,28.3,63.1,63.1,63.1c34.8,0,63.1-28.3,63.1-63.1c0-34.8-28.3-63.1-63.1-63.1
		C704.6,209.7,676.3,238.1,676.3,272.9z M779.9,272.9c0,22.3-18.2,40.5-40.5,40.5c-22.3,0-40.5-18.2-40.5-40.5
		c0-22.3,18.2-40.5,40.5-40.5C761.7,232.4,779.9,250.5,779.9,272.9z"/>
	<path fill="#1D1D1B" d="M96.3,321.1c34.8,0,63.1-28.3,63.1-63.1c0-34.8-28.3-63.1-63.1-63.1c-34.8,0-63.1,28.3-63.1,63.1
		C33.2,292.8,61.5,321.1,96.3,321.1z M96.3,217.5c22.3,0,40.5,18.2,40.5,40.5c0,22.3-18.2,40.5-40.5,40.5
		c-22.3,0-40.5-18.2-40.5-40.5C55.8,235.7,74,217.5,96.3,217.5z"/>
	<path fill="#1D1D1B" d="M508.9,815.8c144.6,0,262.3-117.7,262.3-262.3c0-115.2-74.8-215.9-183.5-250c16-29.9,24.4-63.3,24.4-97.4
		C612.2,92.5,519.7,0,405.9,0C292.2,0,199.7,92.5,199.7,206.1c0,75.3,41.4,144.7,106.7,180.7c-6.7,8.1-12.8,16.6-18.4,25.4
		c-31.7-29.7-73.5-46.6-117.1-46.6C76.7,365.6,0,442.3,0,536.6c0,94.3,76.7,170.9,170.9,170.9c37.9,0,74.4-12.5,104.1-35.4
		C319.6,759.8,409.8,815.8,508.9,815.8z M222.3,206.1c0-101.2,82.4-183.5,183.6-183.5c101.2,0,183.6,82.3,183.6,183.5
		c0,32.1-8.4,63.5-24.2,91.2c-1.4-0.3-2.9-0.5-4.3-0.8c-2-0.4-4-0.8-6.1-1.2c-3.1-0.5-6.2-1-9.3-1.5c-2-0.3-3.9-0.6-5.9-0.8
		c-3.4-0.4-6.8-0.7-10.3-1c-1.7-0.1-3.4-0.3-5.1-0.4c-5.1-0.3-10.3-0.5-15.5-0.5c-4.5,0-8.9,0.1-13.4,0.4c-1.5,0.1-3,0.2-4.5,0.3
		c-2.9,0.2-5.9,0.4-8.8,0.7c-1.8,0.2-3.6,0.5-5.4,0.7c-2.6,0.3-5.2,0.6-7.8,1c-1.9,0.3-3.8,0.7-5.7,1c-2.4,0.4-4.9,0.8-7.3,1.4
		c-2,0.4-3.9,0.9-5.9,1.4c-2.3,0.5-4.7,1.1-7,1.7c-2,0.5-4,1.1-6,1.7c-2.3,0.6-4.5,1.3-6.7,2c-2,0.6-4,1.3-6,2
		c-2.2,0.7-4.4,1.5-6.5,2.3c-2,0.7-4,1.5-6,2.3c-2.1,0.8-4.2,1.7-6.3,2.6c-2,0.9-4,1.8-5.9,2.7c-2,0.9-4.1,1.9-6.1,2.8
		c-2,1-3.9,2-5.8,3c-2,1-3.9,2-5.9,3.1c-1.9,1.1-3.8,2.2-5.7,3.3c-1.9,1.1-3.8,2.2-5.7,3.4c-1.9,1.2-3.7,2.4-5.6,3.6
		c-1.8,1.2-3.7,2.4-5.5,3.7c-1.8,1.3-3.6,2.5-5.4,3.8c-1.8,1.3-3.6,2.6-5.3,4c-1.7,1.3-3.5,2.7-5.2,4.1c-1.7,1.4-3.5,2.9-5.2,4.3
		c-1.7,1.4-3.3,2.8-4.9,4.3c-1.7,1.5-3.4,3.1-5,4.7c-1.6,1.5-3.1,3-4.6,4.5c-0.6,0.6-1.3,1.2-1.9,1.8
		C261.2,338.2,222.3,275,222.3,206.1z M332.9,391c45.3-49,109.5-77.1,176.1-77.1c5.4,0,10.7,0.2,16,0.6c14.7,1,29.1,3.2,43,6.8
		c106.3,26.9,180.6,122.4,180.6,232.3c0,132.1-107.5,239.6-239.6,239.6c-92.5,0-176.6-53.3-216.4-136.5c1.2-1.2,2.2-2.5,3.4-3.8
		c1.8-1.9,3.6-3.9,5.3-5.9c2-2.4,4-4.9,5.9-7.4c1.6-2.1,3.1-4.1,4.6-6.3c1.8-2.6,3.5-5.3,5.1-8c1.3-2.2,2.7-4.3,3.9-6.6
		c1.5-2.8,2.9-5.7,4.3-8.6c1.1-2.2,2.2-4.5,3.2-6.8c1.3-3,2.4-6.1,3.5-9.2c0.8-2.3,1.7-4.5,2.4-6.8c1-3.3,1.8-6.6,2.7-10
		c0.5-2.2,1.2-4.4,1.6-6.6c0.8-3.7,1.3-7.5,1.8-11.4c0.3-1.9,0.6-3.7,0.8-5.6c0.6-5.7,0.9-11.5,0.9-17.3c0-6.9-0.5-14.1-1.4-21.4
		c7.2-31.7,23.1-60.7,46.3-83.8c4.4-4.4,4.4-11.6,0-16c-4.4-4.4-11.6-4.4-16,0c-17.3,17.2-30.9,37.2-40.6,59.1
		c-0.2-0.5-0.4-0.9-0.6-1.4c-0.9-2.2-1.8-4.4-2.7-6.5c-0.7-1.5-1.4-3.1-2.2-4.6c-1-2.1-2.1-4.2-3.1-6.2c-0.8-1.5-1.7-3-2.5-4.5
		c-1.2-2-2.3-4-3.6-5.9c-0.9-1.5-1.9-2.9-2.8-4.3c-1.3-1.9-2.6-3.8-4-5.7c-1-1.4-2.1-2.8-3.1-4.2c-0.5-0.6-0.9-1.3-1.4-1.9
		C312.2,415.6,321.9,402.8,332.9,391z M22.6,536.6c0-81.8,66.5-148.3,148.3-148.3c42.2,0,82.6,18.1,110.8,49.7
		c19.2,21.6,31.5,48.1,35.7,76.5c-2.6,12.9-4.1,26-4.1,39.1c0,3.2,1.3,6,3.4,8.1c-0.3,1.8-0.5,3.7-0.9,5.5
		c-5.3,25-17,48.3-33.9,67.6c-2.4,2.8-5.1,5.3-7.8,7.9c-1,1-2,2.1-3.1,3.1c-27.4,25.2-63,39.1-100.3,39.1
		C89.2,684.9,22.6,618.3,22.6,536.6z"/>
	<path fill="#1D1D1B" d="M435.4,396c1.5,0,3-0.3,4.5-0.9c21.8-9.5,45-14.3,69-14.3c6.3,0,11.3-5.1,11.3-11.3
		c0-6.3-5.1-11.3-11.3-11.3c-27.1,0-53.4,5.5-78.1,16.2c-5.7,2.5-8.3,9.2-5.8,14.9C426.9,393.4,431,396,435.4,396z"/>
	<path fill="#1D1D1B" d="M88.3,453.9C66.2,476,54,505.4,54,536.6c0,6.3,5.1,11.3,11.3,11.3c6.3,0,11.3-5.1,11.3-11.3
		c0-25.2,9.8-48.8,27.6-66.6c4.4-4.4,4.4-11.6,0-16C99.9,449.5,92.7,449.5,88.3,453.9z"/>
</g>
</svg>
