<?xml version="1.0" encoding="utf-8"?>
<!-- Generator: Adobe Illustrator 25.2.1, SVG Export Plug-In . SVG Version: 6.00 Build 0)  -->
<svg version="1.1" id="Layer_1" xmlns="http://www.w3.org/2000/svg" xmlns:xlink="http://www.w3.org/1999/xlink" x="0px" y="0px"
	 viewBox="0 0 841.7 804" enable-background="new 0 0 841.7 804" xml:space="preserve">
<g>
	<path fill="#1D1D1B" d="M542.3,435.4c0-132.8-108-240.8-240.8-240.8c-132.8,0-240.8,108-240.8,240.8c0,132.8,108,240.8,240.8,240.8
		C434.3,676.2,542.3,568.2,542.3,435.4z M87.2,435.4c0-118.2,96.1-214.3,214.3-214.3c118.2,0,214.3,96.1,214.3,214.3
		c0,118.2-96.1,214.3-214.3,214.3C183.4,649.7,87.2,553.6,87.2,435.4z"/>
	<path fill="#1D1D1B" d="M174.1,307.9c-34,34-52.8,79.3-52.8,127.5c0,7.3,5.9,13.3,13.3,13.3c7.3,0,13.3-5.9,13.3-13.3
		c0-41.1,16-79.7,45-108.7c5.2-5.2,5.2-13.6,0-18.8C187.6,302.8,179.2,302.8,174.1,307.9z"/>
	<path fill="#1D1D1B" d="M314.8,268.4c0-7.3-5.9-13.3-13.3-13.3c-25,0-49.2,5-72,15c-6.7,2.9-9.8,10.8-6.9,17.5c2.2,5,7.1,8,12.2,8
		c1.8,0,3.6-0.4,5.3-1.1c19.4-8.5,40.1-12.8,61.4-12.8C308.8,281.7,314.8,275.7,314.8,268.4z"/>
	<path fill="#1D1D1B" d="M74,147.9c40.8,0,74-33.2,74-74C147.9,33.2,114.7,0,74,0S0,33.2,0,73.9C0,114.7,33.2,147.9,74,147.9z
		 M74,26.5c26.2,0,47.4,21.3,47.4,47.4c0,26.2-21.3,47.4-47.4,47.4s-47.4-21.3-47.4-47.4C26.5,47.8,47.8,26.5,74,26.5z"/>
	<path fill="#1D1D1B" d="M767.7,416.6c40.8,0,73.9-33.2,73.9-74c0-40.8-33.2-74-73.9-74c-40.8,0-74,33.2-74,74
		C693.8,383.4,726.9,416.6,767.7,416.6z M767.7,295.2c26.1,0,47.4,21.3,47.4,47.4c0,26.2-21.3,47.4-47.4,47.4
		c-26.2,0-47.4-21.3-47.4-47.4C720.3,316.4,741.6,295.2,767.7,295.2z"/>
	<path fill="#1D1D1B" d="M623.1,656.1c-40.8,0-74,33.2-74,74c0,40.8,33.2,73.9,74,73.9c40.8,0,73.9-33.2,73.9-73.9
		C697.1,689.3,663.9,656.1,623.1,656.1z M623.1,777.5c-26.2,0-47.4-21.3-47.4-47.4c0-26.2,21.3-47.4,47.4-47.4
		c26.1,0,47.4,21.3,47.4,47.4C670.5,756.2,649.3,777.5,623.1,777.5z"/>
</g>
</svg>
