<?xml version="1.0" encoding="utf-8"?>
<!-- Generator: Adobe Illustrator 25.2.1, SVG Export Plug-In . SVG Version: 6.00 Build 0)  -->
<svg version="1.1" id="Layer_1" xmlns="http://www.w3.org/2000/svg" xmlns:xlink="http://www.w3.org/1999/xlink" x="0px" y="0px"
	 viewBox="0 0 820.9 800.7" enable-background="new 0 0 820.9 800.7" xml:space="preserve">
<g>
	<path fill="#1D1D1B" d="M635.1,144c39.7,0,72-32.3,72-72c0-39.7-32.3-72-72-72c-39.7,0-72,32.3-72,72
		C563.1,111.7,595.4,144,635.1,144z M635.1,25.8c25.5,0,46.2,20.7,46.2,46.2c0,25.5-20.7,46.2-46.2,46.2S588.9,97.4,588.9,72
		C588.9,46.5,609.6,25.8,635.1,25.8z"/>
	<path fill="#1D1D1B" d="M89.1,352.2c7.1,0,12.9-5.8,12.9-12.9c0-52.7,20.5-102.2,57.7-139.4c5-5,5-13.2,0-18.3c-5-5-13.2-5-18.3,0
		c-42.1,42.1-65.3,98.1-65.3,157.7C76.1,346.5,81.9,352.2,89.1,352.2z"/>
	<path fill="#1D1D1B" d="M215.3,159.6c1.7,0,3.5-0.4,5.1-1.1c24.9-10.9,51.4-16.3,78.7-16.3c7.1,0,12.9-5.8,12.9-12.9
		c0-7.1-5.8-12.9-12.9-12.9c-31,0-60.9,6.2-89.1,18.5c-6.5,2.8-9.5,10.5-6.7,17C205.5,156.7,210.3,159.6,215.3,159.6z"/>
	<path fill="#1D1D1B" d="M2.2,632.2c0,92.9,75.6,168.5,168.5,168.5c91.7,0,166.4-73.7,168.3-165c42.4-5.6,83.4-20.5,119.7-43.5
		c7.4,7,15.3,13.5,23.7,19.5c-10.3,16.9-15.8,36.1-15.8,56.4c0,60.2,49.1,109.2,109.4,109.2c60.3,0,109.4-49,109.4-109.2
		c0-10.4-1.5-20.5-4.3-30c83-31,139.9-111.8,139.9-201.2c0-118.4-96.3-214.7-214.7-214.7c-10.4,0-20.7,1-30.9,2.5
		C529.2,113.9,419.6,40.2,299.2,40.2C134.2,40.2,0,174.4,0,339.4c0,62.2,18.9,121.1,54.3,171.4C21.1,542.4,2.2,586,2.2,632.2z
		 M170.7,774.9C92,774.9,28,710.9,28,632.2c0-42.6,18.8-82.6,51.5-109.8c25.6-21.3,58-33,91.2-33c76.2,0,138.7,59.5,142.4,135.6
		c0.1,2.4,0.2,4.9,0.2,7.2C313.4,710.9,249.4,774.9,170.7,774.9z M576,751.5c-46.1,0-83.5-37.4-83.5-83.4c0-19,6.2-36.8,17.9-51.5
		c16-20.3,39.9-32,65.6-32c33.6,0,63.7,19.9,76.8,50.8c4.5,10.1,6.8,21.1,6.8,32.7C659.5,714.1,622.1,751.5,576,751.5z M606.2,248
		c104.2,0,188.9,84.7,188.9,188.9c0,79-50.4,150.5-123.9,177.5c-0.4-0.7-0.8-1.2-1.2-1.9c-1.1-1.9-2.3-3.6-3.5-5.4
		c-1.7-2.5-3.3-4.9-5.2-7.2c-1.4-1.7-2.8-3.3-4.2-4.9c-1.9-2.2-3.9-4.3-6.1-6.3c-1.6-1.5-3.2-2.9-4.8-4.3c-2.2-1.9-4.5-3.6-6.9-5.3
		c-1.7-1.2-3.5-2.4-5.3-3.6c-2.5-1.6-5.1-3-7.7-4.3c-1.9-1-3.7-1.9-5.6-2.8c-2.8-1.3-5.7-2.3-8.6-3.3c-1.9-0.7-3.7-1.4-5.6-1.9
		c-3.3-0.9-6.6-1.6-10-2.2c-1.7-0.3-3.3-0.8-5-1c-5.1-0.7-10.3-1.1-15.5-1.1c-4,0-7.9,0.2-11.8,0.7c-1.3,0.1-2.5,0.4-3.8,0.6
		c-2.6,0.4-5.2,0.8-7.8,1.3c-1.5,0.3-2.9,0.7-4.4,1.1c-2.3,0.6-4.6,1.2-6.8,2c-1.5,0.5-3,1.1-4.5,1.6c-2.1,0.8-4.2,1.7-6.3,2.6
		c-1.5,0.7-2.9,1.4-4.3,2.1c-2,1-4,2.2-6,3.3c-1.4,0.8-2.7,1.6-4.1,2.5c-2,1.3-3.9,2.7-5.8,4.2c-1.2,0.9-2.4,1.7-3.6,2.7
		c-2.2,1.8-4.3,3.8-6.4,5.8c-0.7,0.7-1.5,1.3-2.2,2.1c-0.1,0.1-0.2,0.1-0.2,0.2c-6.2-4.4-12.2-9.1-17.7-14.1
		c0.4-0.3,0.7-0.6,1.1-0.9c2.1-1.6,4.1-3.3,6.2-5c2.6-2.1,5.2-4.2,7.7-6.4c2-1.8,4-3.6,6-5.5c2.4-2.2,4.8-4.4,7.1-6.6
		c2-1.9,3.9-3.9,5.8-5.9c2.2-2.3,4.4-4.5,6.5-6.9c1.9-2.1,3.7-4.2,5.5-6.3c2-2.4,4-4.7,6-7.1c1.8-2.2,3.5-4.4,5.1-6.6
		c1.9-2.5,3.7-4.9,5.5-7.4c1.6-2.3,3.2-4.6,4.7-6.9c1.7-2.6,3.4-5.1,5-7.7c1.5-2.4,2.9-4.7,4.3-7.1c1.6-2.7,3.1-5.3,4.6-8
		c1.3-2.4,2.6-4.9,3.9-7.3c1.4-2.8,2.8-5.5,4.1-8.3c1.2-2.5,2.4-5,3.5-7.5c1.3-2.9,2.4-5.7,3.6-8.6c1-2.5,2.1-5.1,3-7.6
		c1.1-3,2.1-6,3.1-9c0.9-2.6,1.7-5.1,2.5-7.7c0.9-3.1,1.8-6.2,2.6-9.3c0.7-2.6,1.4-5.1,2-7.7c0.8-3.3,1.5-6.5,2.1-9.8
		c0.5-2.5,1.1-5,1.5-7.5c0.6-3.5,1.1-7,1.6-10.5c0.3-2.4,0.8-4.7,1-7.1c0.5-3.9,0.8-7.9,1.1-11.9c0.2-2,0.4-3.9,0.5-5.9
		c0.4-6,0.6-12,0.6-18c0-8.4-0.4-16.8-1.1-25.1c-0.2-2.7-0.6-5.3-0.9-7.9c-0.6-5.7-1.3-11.4-2.3-17c-0.5-3-1.1-6.1-1.7-9.1
		c-1-5.2-2.2-10.5-3.5-15.7c-0.8-3.1-1.6-6.1-2.5-9.1c-0.6-2.1-1.1-4.2-1.7-6.3C591.7,248.4,599,248,606.2,248z M299.2,66
		c113.3,0,216.2,71.3,256.1,177.3c11.5,30.8,17.3,63.1,17.3,96.1c0,90.4-44.7,174.9-119.6,226c-34.5,23.5-74.1,38.8-115.2,44.6
		c-0.1-0.5-0.2-1-0.3-1.5c-0.3-2.3-0.8-4.6-1.2-6.8c-0.5-3-1.1-6-1.8-8.9c-0.5-2.3-1.2-4.5-1.8-6.7c-0.8-2.8-1.6-5.7-2.5-8.4
		c-0.8-2.2-1.6-4.4-2.5-6.6c-1-2.7-2.1-5.3-3.2-8c-1-2.1-2-4.2-3-6.3c-1.3-2.5-2.6-5.1-3.9-7.5c-1.1-2-2.4-4-3.6-6
		c-1.5-2.4-3-4.7-4.6-7c-1.3-1.9-2.7-3.8-4.1-5.6c-1.7-2.2-3.4-4.4-5.2-6.5c-1.5-1.8-3-3.5-4.6-5.3c-1.9-2.1-3.8-4.1-5.8-6
		c-1.6-1.6-3.3-3.3-5-4.8c-2.1-1.9-4.2-3.7-6.3-5.5c-1.8-1.5-3.6-3-5.4-4.4c-2.2-1.7-4.5-3.3-6.8-4.9c-1.9-1.3-3.8-2.6-5.7-3.8
		c-2.4-1.5-4.9-2.9-7.3-4.3c-2-1.1-4-2.3-6-3.3c-2.6-1.3-5.2-2.5-7.8-3.6c-2.1-0.9-4.1-1.9-6.2-2.7c-2.8-1.1-5.6-2-8.4-3
		c-2.1-0.7-4.2-1.5-6.3-2.1c-3-0.9-6.1-1.6-9.2-2.3c-2.1-0.5-4.1-1-6.2-1.4c-3.5-0.7-7-1.1-10.5-1.5c-1.8-0.2-3.5-0.6-5.3-0.7
		c-5.4-0.5-10.8-0.8-16.3-0.8c-4.6,0-9.3,0.2-13.9,0.6c-1.5,0.1-3,0.4-4.5,0.5c-3.1,0.3-6.2,0.7-9.2,1.2c-1.8,0.3-3.5,0.7-5.3,1
		c-2.8,0.6-5.5,1.1-8.3,1.8c-1.8,0.5-3.6,1-5.4,1.5c-2.6,0.8-5.2,1.6-7.8,2.5c-1.8,0.6-3.6,1.3-5.4,1.9c-2.6,1-5.1,2-7.7,3.2
		c-1.7,0.7-3.4,1.5-5.1,2.3c-2.6,1.3-5.2,2.6-7.8,4c-1.5,0.8-3,1.6-4.5,2.4c-3,1.7-5.9,3.6-8.8,5.6c-1,0.6-1.9,1.2-2.9,1.9
		c-0.1,0.1-0.3,0.2-0.4,0.3c-31.5-45.5-48.1-98.8-48.1-154.9C25.8,188.6,148.4,66,299.2,66z"/>
	<path fill="#1D1D1B" d="M93.3,554.7c-20.7,20.7-32.1,48.2-32.1,77.4c0,7.1,5.8,12.9,12.9,12.9c7.1,0,12.9-5.8,12.9-12.9
		c0-22.4,8.7-43.4,24.5-59.2c5-5,5-13.2,0-18.3C106.5,549.7,98.3,549.7,93.3,554.7z"/>
</g>
</svg>
