<?xml version="1.0" encoding="utf-8"?>
<!-- Generator: Adobe Illustrator 25.2.1, SVG Export Plug-In . SVG Version: 6.00 Build 0)  -->
<svg version="1.1" id="Layer_1" xmlns="http://www.w3.org/2000/svg" xmlns:xlink="http://www.w3.org/1999/xlink" x="0px" y="0px"
	 viewBox="0 0 839.7 800.4" enable-background="new 0 0 839.7 800.4" xml:space="preserve">
<g>
	<path fill="#1D1D1B" d="M225.8,619.9c89.9,0,171.7-54.4,207.2-136.4c20.8,6.2,42.3,9.5,64.1,9.5c15.3,0,30.5-1.6,45.4-4.6
		c5.6,77,69.9,138,148.3,138c82.1,0,148.9-66.8,148.9-148.9c0-74-54.2-136-126-147.1c6-20.4,9.1-41.5,9.1-63.2
		c0-124.6-101.3-225.9-225.8-225.9c-89.9,0-171.7,54.4-207.1,136.4c-20.8-6.2-42.3-9.5-64.2-9.5C101.3,168.2,0,269.5,0,394
		C0,518.5,101.3,619.9,225.8,619.9z M816.8,477.5c0,69.5-56.6,126.1-126.1,126.1c-69.5,0-126.1-56.6-126.1-126.1
		c0-0.8,0-1.5,0.1-3.2c1.6-67.8,58.1-122.9,125.9-122.9c2.4,0,4.8,0.1,7.3,0.2C764.6,355.4,816.8,410.7,816.8,477.5z M497.1,64.2
		c111.9,0,203,91.1,203,203.1c0,21.1-3.2,41.7-9.4,61.4c-4.9,0-9.7,0.3-14.5,0.7c-1.5,0.1-2.9,0.4-4.3,0.6c-3.3,0.4-6.7,0.9-9.9,1.5
		c-2,0.4-3.8,1-5.8,1.4c-2.7,0.6-5.3,1.2-8,2c-2.2,0.7-4.3,1.5-6.4,2.3c-2.3,0.8-4.5,1.5-6.7,2.4c-2.3,1-4.6,2.1-6.9,3.1
		c-1.9,0.9-3.8,1.7-5.7,2.7c-2.5,1.3-4.8,2.7-7.2,4.1c-1.5,0.9-3.1,1.8-4.6,2.8c-2.5,1.6-5,3.4-7.4,5.2c-1.2,0.9-2.5,1.7-3.6,2.7
		c-2.6,2-5.1,4.2-7.5,6.4c-0.9,0.8-1.8,1.6-2.7,2.4c-2.6,2.4-5.1,5-7.5,7.6c-0.6,0.7-1.3,1.4-1.9,2.1c-2.5,2.8-4.9,5.7-7.2,8.7
		c-0.4,0.6-0.9,1.1-1.3,1.7c-2.4,3.2-4.6,6.4-6.7,9.8c-0.3,0.5-0.6,1-0.9,1.4c-2.1,3.4-4.1,7-5.9,10.6c-0.2,0.5-0.5,0.9-0.7,1.4
		c-1.8,3.6-3.4,7.3-4.9,11c-0.2,0.6-0.5,1.2-0.7,1.8c-1.4,3.6-2.6,7.2-3.7,11c-0.3,0.9-0.5,1.8-0.8,2.7c-0.9,3.4-1.7,6.8-2.4,10.3
		c-0.3,1.5-0.5,2.9-0.8,4.4c-0.5,2.9-0.9,5.8-1.1,8.7c-0.1,1-0.3,2-0.4,3c-36.8,8.5-76.3,6.4-112.3-6.2
		c-81.4-28.3-136.1-105.3-136.1-191.6c0-24.9,4.4-49,13.1-71.6C336.7,117,413,64.2,497.1,64.2z M225.8,191c19.1,0,37.9,2.6,56.1,7.9
		c-0.5,1.5-0.8,3.1-1.3,4.6c-0.7,2.3-1.3,4.6-1.9,6.9c-1,3.9-1.9,7.9-2.7,11.8c-0.5,2.3-0.9,4.6-1.3,6.9c-0.7,4.3-1.3,8.6-1.8,13
		c-0.2,2-0.5,4-0.7,6c-0.5,6.4-0.9,12.8-0.9,19.2c0,5.9,0.2,11.7,0.7,17.5c0.1,1.9,0.5,3.8,0.7,5.8c0.4,3.8,0.8,7.7,1.4,11.5
		c0.4,2.3,0.9,4.5,1.3,6.8c0.6,3.4,1.2,6.7,2,10.1c0.6,2.4,1.3,4.7,1.9,7.1c0.8,3.1,1.7,6.3,2.6,9.4c0.8,2.4,1.7,4.8,2.5,7.2
		c1,2.9,2.1,5.9,3.2,8.8c1,2.4,2,4.7,3.1,7.1c1.2,2.8,2.5,5.6,3.8,8.3c1.1,2.3,2.4,4.6,3.6,6.9c1.4,2.7,2.8,5.3,4.4,7.9
		c1.3,2.3,2.8,4.5,4.2,6.7c1.6,2.5,3.2,5,4.9,7.5c1.5,2.2,3.1,4.3,4.7,6.5c1.8,2.4,3.5,4.7,5.4,7c1.7,2.1,3.4,4.1,5.2,6.2
		c1.9,2.2,3.8,4.4,5.8,6.5c1.9,2,3.8,3.9,5.7,5.8c2.1,2,4.2,4.1,6.3,6c2,1.8,4.1,3.7,6.1,5.4c2.2,1.9,4.5,3.7,6.7,5.5
		c2.2,1.7,4.3,3.4,6.6,5c2.4,1.7,4.8,3.4,7.2,5c2.3,1.5,4.6,3.1,7,4.5c2.5,1.5,5.1,3,7.6,4.5c2.4,1.4,4.8,2.7,7.3,4
		c2.7,1.4,5.4,2.7,8.1,3.9c2.5,1.2,5,2.3,7.6,3.4c0.9,0.4,1.8,0.8,2.7,1.2C379.2,548.9,306,597.1,225.8,597.1
		c-111.9,0-203-91.1-203-203.1C22.8,282.1,113.9,191,225.8,191z"/>
	<path fill="#1D1D1B" d="M122.6,274.7c-4.5-4.5-11.7-4.5-16.1,0C74.6,306.6,57.1,348.9,57.1,394c0,6.3,5.1,11.4,11.4,11.4
		c6.3,0,11.4-5.1,11.4-11.4c0-39,15.2-75.6,42.7-103.2C127.1,286.4,127.1,279.1,122.6,274.7z"/>
	<path fill="#1D1D1B" d="M163,261.1c1.5,0,3.1-0.3,4.5-1c18.4-8,38-12.1,58.3-12.1c6.3,0,11.4-5.1,11.4-11.4
		c0-6.3-5.1-11.4-11.4-11.4c-23.4,0-46.1,4.7-67.4,14c-5.8,2.5-8.4,9.2-5.9,15C154.4,258.6,158.6,261.1,163,261.1z"/>
	<path fill="#1D1D1B" d="M593.7,703.8c0-53.3-43.3-96.6-96.6-96.6c-53.3,0-96.6,43.3-96.6,96.6c0,53.3,43.3,96.6,96.6,96.6
		C550.3,800.4,593.7,757.1,593.7,703.8z M423.3,703.8c0-40.7,33.1-73.8,73.8-73.8s73.8,33.1,73.8,73.8s-33.1,73.8-73.8,73.8
		S423.3,744.5,423.3,703.8z"/>
	<path fill="#1D1D1B" d="M243.5,127.2c35.1,0,63.6-28.5,63.6-63.6c0-35.1-28.5-63.6-63.6-63.6c-35.1,0-63.6,28.5-63.6,63.6
		C179.9,98.7,208.4,127.2,243.5,127.2z M243.5,22.8c22.5,0,40.8,18.3,40.8,40.8c0,22.5-18.3,40.8-40.8,40.8
		c-22.5,0-40.8-18.3-40.8-40.8C202.7,41.1,221,22.8,243.5,22.8z"/>
	<path fill="#1D1D1B" d="M339.7,278.6c6.3,0,11.4-5.1,11.4-11.4c0-39,15.2-75.6,42.7-103.2c4.5-4.5,4.5-11.7,0-16.1
		c-4.5-4.5-11.7-4.5-16.1,0c-31.9,31.9-49.4,74.2-49.4,119.3C328.3,273.5,333.4,278.6,339.7,278.6z"/>
	<path fill="#1D1D1B" d="M434.2,134.3c1.5,0,3.1-0.3,4.5-1c18.4-8,38-12.1,58.3-12.1c6.3,0,11.4-5.1,11.4-11.4
		c0-6.3-5.1-11.4-11.4-11.4c-23.4,0-46.1,4.7-67.4,14c-5.8,2.5-8.4,9.2-5.9,15C425.6,131.8,429.8,134.3,434.2,134.3z"/>
	<path fill="#1D1D1B" d="M622.4,409c-18.3,18.3-28.3,42.6-28.3,68.4c0,6.3,5.1,11.4,11.4,11.4c6.3,0,11.4-5.1,11.4-11.4
		c0-19.8,7.7-38.3,21.7-52.3c4.5-4.5,4.5-11.7,0-16.1C634,404.6,626.8,404.6,622.4,409z"/>
</g>
</svg>
