<?xml version="1.0" encoding="utf-8"?>
<!-- Generator: Adobe Illustrator 25.2.1, SVG Export Plug-In . SVG Version: 6.00 Build 0)  -->
<svg version="1.1" id="Layer_1" xmlns="http://www.w3.org/2000/svg" xmlns:xlink="http://www.w3.org/1999/xlink" x="0px" y="0px"
	 viewBox="0 0 813.8 802.9" enable-background="new 0 0 813.8 802.9" xml:space="preserve">
<g>
	<path fill="#1D1D1B" d="M440.7,455.8c-0.1,2.6-0.2,5.2-0.2,7.9c0,102.9,83.7,186.6,186.6,186.6c102.9,0,186.6-83.7,186.6-186.6
		c0-55.3-24-106.3-65.8-141.8c10.7-27.2,16.4-55.9,16.4-85.6C764.3,106,658.3,0,527.9,0C397.7,0,291.7,106,291.7,236.3
		C291.7,333.3,351.2,420.3,440.7,455.8z M789.9,463.7c0,89.7-73,162.7-162.7,162.7c-89.7,0-162.7-73-162.7-162.7
		c0-5.2,0.3-9.9,0.8-14.7c7.5-84.4,77.1-148,161.9-148c9.1,0,18.1,0.7,26.8,2.2c6.2,1,12.3,2.5,18.4,4.3c11,3.2,21.6,7.4,31.7,12.8
		c2.8,1.5,5.5,3.2,8.2,4.9c1.1,0.7,2.2,1.3,3.3,2c3.8,2.4,7.4,5.1,11,7.8c0,0,0,0,0,0c0,0,0,0,0,0
		C766.8,365.9,789.9,412.9,789.9,463.7z M527.9,23.9c117.2,0,212.5,95.3,212.5,212.4c0,24.4-4.1,48.1-12.1,70.7
		c-4-2.6-8.1-5-12.3-7.3c-1.3-0.7-2.7-1.4-4.1-2.1c-2.9-1.5-5.9-3-8.9-4.3c-1.7-0.7-3.3-1.4-5-2.1c-2.8-1.1-5.5-2.2-8.3-3.2
		c-1.8-0.6-3.6-1.2-5.4-1.8c-2.8-0.9-5.6-1.7-8.4-2.5c-1.8-0.5-3.7-1-5.6-1.4c-2.9-0.7-5.8-1.3-8.8-1.8c-1.8-0.3-3.6-0.7-5.4-1
		c-3.2-0.5-6.5-0.9-9.8-1.2c-1.5-0.2-3.1-0.4-4.6-0.5c-4.8-0.4-9.7-0.6-14.6-0.6c-5.9,0-11.8,0.3-17.6,0.8c-1.9,0.2-3.8,0.5-5.8,0.8
		c-3.8,0.5-7.6,0.9-11.3,1.6c-2.3,0.4-4.5,1-6.8,1.5c-3.3,0.7-6.6,1.4-9.8,2.3c-2.4,0.7-4.7,1.5-7.1,2.3c-3,1-6,1.9-8.9,3
		c-2.4,0.9-4.7,2-7.1,3c-2.7,1.2-5.5,2.3-8.1,3.6c-2.4,1.2-4.7,2.4-7,3.7c-2.5,1.4-5,2.7-7.4,4.2c-2.3,1.4-4.6,2.9-6.9,4.4
		c-2.3,1.5-4.5,3-6.7,4.6c-2.3,1.7-4.5,3.4-6.7,5.2c-2,1.6-4,3.3-6,5c-2.2,1.9-4.3,3.9-6.4,5.9c-1.8,1.7-3.6,3.5-5.3,5.3
		c-2.1,2.2-4.1,4.4-6.1,6.7c-1.6,1.8-3.1,3.7-4.6,5.5c-1.9,2.4-3.8,4.9-5.7,7.4c-1.4,1.9-2.7,3.8-3.9,5.7c-1.8,2.7-3.5,5.3-5.1,8.1
		c-1.2,1.9-2.2,3.9-3.3,5.9c-1.6,2.9-3.1,5.7-4.5,8.7c-1,2-1.8,4.1-2.7,6.2c-1.3,3-2.6,6-3.8,9.1c-0.8,2.2-1.5,4.4-2.2,6.6
		c-1,3.1-2.1,6.2-2.9,9.3c-0.7,2.5-1.2,5.1-1.8,7.6c-0.7,3-1.4,5.9-2,9c-0.1,0.4-0.2,0.7-0.2,1.1c-77.1-33.3-127.9-109.9-127.9-195
		C315.5,119.2,410.8,23.9,527.9,23.9z"/>
	<path fill="#1D1D1B" d="M420,111.5c-4.7-4.7-12.2-4.7-16.9,0c-33.4,33.4-51.7,77.7-51.7,124.9c0,6.6,5.3,11.9,11.9,11.9
		c6.6,0,11.9-5.3,11.9-11.9c0-40.8,15.9-79.1,44.7-108C424.6,123.7,424.6,116.1,420,111.5z"/>
	<path fill="#1D1D1B" d="M462.2,97.3c1.6,0,3.2-0.3,4.8-1c19.3-8.4,39.8-12.7,61-12.7c6.6,0,11.9-5.3,11.9-11.9s-5.3-11.9-11.9-11.9
		c-24.5,0-48.2,4.9-70.5,14.7c-6,2.6-8.8,9.7-6.2,15.7C453.2,94.6,457.6,97.3,462.2,97.3z"/>
	<path fill="#1D1D1B" d="M108.6,278.9c55.8,0,101.1-45.4,101.1-101.1c0-55.7-45.4-101.1-101.1-101.1C52.8,76.7,7.5,122,7.5,177.8
		C7.5,233.5,52.8,278.9,108.6,278.9z M108.6,100.5c42.6,0,77.2,34.6,77.2,77.2S151.2,255,108.6,255c-42.6,0-77.2-34.6-77.2-77.2
		S66,100.5,108.6,100.5z"/>
	<path fill="#1D1D1B" d="M515.5,669.8c-36.7,0-66.6,29.9-66.6,66.6c0,36.7,29.9,66.6,66.6,66.6c36.7,0,66.6-29.9,66.6-66.6
		C582.1,699.6,552.2,669.8,515.5,669.8z M515.5,779c-23.5,0-42.7-19.1-42.7-42.7c0-23.5,19.1-42.7,42.7-42.7
		c23.5,0,42.7,19.1,42.7,42.7C558.2,759.9,539.1,779,515.5,779z"/>
	<path fill="#1D1D1B" d="M186.6,739c102.9,0,186.6-83.7,186.6-186.6c0-102.9-83.7-186.6-186.6-186.6C83.7,365.8,0,449.5,0,552.4
		C0,655.3,83.7,739,186.6,739z M186.6,389.7c89.7,0,162.7,73,162.7,162.7c0,89.7-73,162.7-162.7,162.7c-89.7,0-162.7-73-162.7-162.7
		C23.9,462.7,96.9,389.7,186.6,389.7z"/>
	<path fill="#1D1D1B" d="M90.1,552.4c0-25.8,10-50,28.3-68.2c4.7-4.7,4.7-12.2,0-16.9c-4.7-4.7-12.2-4.7-16.9,0
		c-22.7,22.7-35.3,53-35.3,85.1c0,6.6,5.3,11.9,11.9,11.9S90.1,559,90.1,552.4z"/>
	<path fill="#1D1D1B" d="M542,378.5c-22.7,22.7-35.3,53-35.3,85.1c0,6.6,5.3,11.9,11.9,11.9s11.9-5.3,11.9-11.9
		c0-25.8,10-50,28.3-68.2c4.7-4.7,4.7-12.2,0-16.9C554.2,373.9,546.7,373.9,542,378.5z"/>
</g>
</svg>
