<?xml version="1.0" encoding="utf-8"?>
<!-- Generator: Adobe Illustrator 25.2.1, SVG Export Plug-In . SVG Version: 6.00 Build 0)  -->
<svg version="1.1" id="Layer_1" xmlns="http://www.w3.org/2000/svg" xmlns:xlink="http://www.w3.org/1999/xlink" x="0px" y="0px"
	 viewBox="0 0 906.1 800.6" enable-background="new 0 0 906.1 800.6" xml:space="preserve">
<g>
	<path fill="#1D1D1B" d="M121,330.8c7.2,0,13.1-5.9,13.1-13.1c0-44.7,17.4-86.8,49-118.4c5.1-5.1,5.1-13.4,0-18.5
		c-5.1-5.1-13.4-5.1-18.5,0c-36.6,36.6-56.7,85.2-56.7,136.9C107.9,324.9,113.8,330.8,121,330.8z"/>
	<path fill="#1D1D1B" d="M229.5,165.3c1.7,0,3.5-0.4,5.2-1.1c21.1-9.2,43.6-13.9,66.9-13.9c7.2,0,13.1-5.9,13.1-13.1
		c0-7.2-5.9-13.1-13.1-13.1c-26.9,0-52.9,5.4-77.3,16.1c-6.6,2.9-9.6,10.6-6.8,17.2C219.6,162.3,224.4,165.3,229.5,165.3z"/>
	<path fill="#1D1D1B" d="M715.3,221.7c61.1,0,110.8-49.7,110.8-110.8S776.5,0,715.3,0S604.5,49.7,604.5,110.8
		S654.2,221.7,715.3,221.7z M715.3,26.2c46.7,0,84.7,38,84.7,84.7s-38,84.7-84.7,84.7s-84.7-38-84.7-84.7S668.7,26.2,715.3,26.2z"/>
	<path fill="#1D1D1B" d="M524.8,727.6c0-40.2-32.7-73-73-73c-40.2,0-73,32.7-73,73c0,40.2,32.7,73,73,73
		C492.1,800.6,524.8,767.9,524.8,727.6z M405,727.6c0-25.8,21-46.8,46.8-46.8c25.8,0,46.8,21,46.8,46.8c0,25.8-21,46.8-46.8,46.8
		C426,774.4,405,753.4,405,727.6z"/>
	<path fill="#1D1D1B" d="M0,507.8c0,94.2,76.6,170.8,170.8,170.8c68.1,0,130.1-41.3,156.9-103.5C458.9,562,560.6,450.6,560.6,317.7
		c0-142.8-116.2-259-259-259c-142.8,0-259,116.2-259,259c0,23.1,3.2,45.9,9.1,67.9C18.8,417.8,0,461.8,0,507.8z M170.8,652.4
		c-79.8,0-144.6-64.9-144.6-144.6c0-41.3,17.8-80.8,48.7-108.4c26.4-23.4,60.5-36.4,95.9-36.4c79.7,0,144.6,64.9,144.6,144.8
		c0,17.4-3.1,34.5-9.1,50.6C285.3,614.6,230.8,652.4,170.8,652.4z M301.6,84.9c128.4,0,232.8,104.5,232.8,232.8
		c0,115.5-85.3,213.1-197.5,230.1c0.3-1.1,0.4-2.2,0.6-3.3c1-4.3,1.7-8.7,2.3-13.1c0.3-1.8,0.5-3.6,0.7-5.4c0.6-6,1.1-12.1,1.1-18.2
		c0-94.3-76.6-170.9-170.8-170.9c-4.8,0-9.7,0.3-14.4,0.7c-1.5,0.1-3,0.4-4.6,0.5c-3.3,0.4-6.5,0.8-9.8,1.3c-1.7,0.3-3.5,0.6-5.2,1
		c-3,0.6-6.1,1.3-9.1,2.1c-1.7,0.4-3.4,0.9-5,1.4c-3.2,0.9-6.3,2-9.4,3.1c-1.4,0.5-2.8,0.9-4.2,1.5c-8.9,3.4-17.5,7.6-25.7,12.5
		c-1.3,0.8-2.5,1.6-3.8,2.4c-1.9,1.2-3.9,2.4-5.8,3.7c-3.4-16.1-5.2-32.6-5.2-49.3C68.7,189.3,173.2,84.9,301.6,84.9z"/>
	<path fill="#1D1D1B" d="M92.3,429.2c-21,21-32.5,48.8-32.5,78.5c0,7.2,5.9,13.1,13.1,13.1c7.2,0,13.1-5.9,13.1-13.1
		c0-22.7,8.8-44,24.9-60c5.1-5.1,5.1-13.4,0-18.5C105.7,424.1,97.4,424.1,92.3,429.2z"/>
	<path fill="#1D1D1B" d="M735.3,694.1c94.2,0,170.8-76.6,170.8-170.8s-76.6-170.8-170.8-170.8S564.5,429,564.5,523.2
		S641.1,694.1,735.3,694.1z M735.3,378.6c79.8,0,144.6,64.9,144.6,144.6S815,667.9,735.3,667.9c-79.8,0-144.6-64.9-144.6-144.6
		S655.5,378.6,735.3,378.6z"/>
	<path fill="#1D1D1B" d="M650.4,523.2c0-22.7,8.8-44,24.8-60c5.1-5.1,5.1-13.4,0-18.5c-5.1-5.1-13.4-5.1-18.5,0
		c-21,21-32.5,48.8-32.5,78.5c0,7.2,5.9,13.1,13.1,13.1C644.6,536.3,650.4,530.5,650.4,523.2z"/>
</g>
</svg>
