<?xml version="1.0" encoding="utf-8"?>
<!-- Generator: Adobe Illustrator 25.2.1, SVG Export Plug-In . SVG Version: 6.00 Build 0)  -->
<svg version="1.1" id="Layer_1" xmlns="http://www.w3.org/2000/svg" xmlns:xlink="http://www.w3.org/1999/xlink" x="0px" y="0px"
	 viewBox="0 0 805.9 855.1" enable-background="new 0 0 805.9 855.1" xml:space="preserve">
<g>
	<path fill="#1D1D1B" d="M77.3,262.4c0-26.5,10.3-51.4,29.1-70.2c4.5-4.5,4.5-11.8,0-16.3c-4.5-4.5-11.8-4.5-16.3,0
		c-23.1,23.1-35.8,53.8-35.8,86.4c0,6.3,5.1,11.5,11.5,11.5C72.2,273.9,77.3,268.7,77.3,262.4z"/>
	<path fill="#1D1D1B" d="M165.8,316.2c-32.1,32.1-49.8,74.8-49.8,120.2c0,6.3,5.1,11.5,11.5,11.5s11.5-5.1,11.5-11.5
		c0-39.3,15.3-76.2,43.1-104c4.5-4.5,4.5-11.8,0-16.3C177.5,311.7,170.3,311.7,165.8,316.2z"/>
	<path fill="#1D1D1B" d="M286,266.4c-23.6,0-46.5,4.7-67.9,14.1c-5.8,2.5-8.5,9.3-5.9,15.1c1.9,4.3,6.1,6.9,10.5,6.9
		c1.5,0,3.1-0.3,4.6-1c18.5-8.1,38.3-12.2,58.7-12.2c6.3,0,11.5-5.1,11.5-11.5C297.5,271.6,292.4,266.4,286,266.4z"/>
	<path fill="#1D1D1B" d="M217.1,636.1c-18.4,18.4-28.6,42.9-28.6,69c0,6.3,5.1,11.5,11.5,11.5c6.3,0,11.5-5.1,11.5-11.5
		c0-19.9,7.8-38.6,21.8-52.7c4.5-4.5,4.5-11.8,0-16.3C228.8,631.6,221.6,631.6,217.1,636.1z"/>
	<path fill="#1D1D1B" d="M452.6,0c-53.7,0-97.4,43.7-97.4,97.4c0,53.7,43.7,97.4,97.4,97.4c53.7,0,97.4-43.7,97.4-97.4
		C549.9,43.7,506.2,0,452.6,0z M452.6,171.7c-41,0-74.4-33.4-74.4-74.4S411.6,23,452.6,23s74.4,33.4,74.4,74.4
		S493.6,171.7,452.6,171.7z"/>
	<path fill="#1D1D1B" d="M661.7,716c0-35.3-28.8-64.1-64.1-64.1c-35.3,0-64.1,28.8-64.1,64.1c0,35.3,28.8,64.1,64.1,64.1
		C632.9,780.1,661.7,751.3,661.7,716z M556.5,716c0-22.7,18.4-41.1,41.1-41.1c22.7,0,41.1,18.4,41.1,41.1
		c0,22.7-18.4,41.1-41.1,41.1C574.9,757.1,556.5,738.6,556.5,716z"/>
	<path fill="#1D1D1B" d="M632.3,262.9c-57.1,0-109.6,27.8-141.9,73.7C462,278.3,410,234.8,347.1,217.3
		c-20.2-76.6-90.7-131.5-170.5-131.5C79.2,85.8,0,165,0,262.4c0,52.3,22.7,100.7,62.3,134c-2.4,13.3-3.8,26.5-3.8,40
		c0,75.4,38.2,146.6,100.4,188.8c-15,23.8-22.9,51.1-22.9,79.8c0,82.7,67.3,150,150,150c82.7,0,150-67.3,150-150
		c0-28.7-7.9-56.1-23-79.9c33.1-22.4,59.8-53.1,77.3-88.8c32.3,45.9,84.9,73.7,142,73.7c95.7,0,173.6-77.9,173.6-173.6
		C805.9,340.7,728,262.9,632.3,262.9z M23,262.4c0-84.7,68.9-153.6,153.6-153.6c65.3,0,123.6,42.3,144.9,102.9c-1-0.2-2-0.2-2.9-0.3
		c-3.8-0.6-7.7-1-11.6-1.4c-1.6-0.2-3.2-0.3-4.9-0.4c-5.4-0.4-10.7-0.6-16.1-0.6c-6.5,0-13,0.3-19.3,0.9c-2.1,0.2-4.2,0.5-6.3,0.8
		c-4.2,0.5-8.5,1-12.6,1.7c-2.5,0.4-4.9,1-7.4,1.5c-3.7,0.8-7.5,1.5-11.1,2.5c-2.6,0.7-5.1,1.5-7.6,2.3c-3.5,1-6.9,2.1-10.3,3.2
		c-2.6,0.9-5.1,1.9-7.6,2.9c-3.3,1.3-6.5,2.6-9.7,4c-2.5,1.1-5,2.4-7.5,3.6c-3.1,1.5-6.2,3.1-9.2,4.7c-2.4,1.3-4.8,2.8-7.2,4.2
		c-2.9,1.8-5.8,3.5-8.7,5.4c-2.3,1.5-4.6,3.1-6.9,4.8c-2.8,2-5.5,4-8.2,6.1c-2.2,1.7-4.4,3.5-6.5,5.3c-2.6,2.2-5.1,4.4-7.6,6.7
		c-2.1,1.9-4.1,3.8-6.1,5.8c-2.4,2.4-4.8,4.9-7.1,7.4c-1.9,2-3.8,4.1-5.6,6.2c-2.2,2.6-4.4,5.3-6.5,8c-1.7,2.2-3.4,4.3-5.1,6.6
		c-2.1,2.8-4,5.8-5.9,8.7c-1.5,2.3-3,4.5-4.5,6.9c-1.9,3.1-3.6,6.3-5.3,9.4c-1.3,2.3-2.6,4.6-3.8,7c-1.7,3.4-3.2,7-4.7,10.5
		c-1,2.3-2.1,4.5-3,6.8c-1.6,4.1-3,8.3-4.4,12.5c-0.6,1.9-1.3,3.7-1.9,5.5c0,0.1-0.1,0.2-0.1,0.3C39.2,342.5,23,303.8,23,262.4z
		 M286,832.1c-70,0-127-57-127-127c0-27.8,8.7-54.1,25.3-76.1C208.6,596.6,245.7,578,286,578c14.9,0,29.6,2.7,43.4,7.7
		c23,8.4,43.4,23.3,58.4,43.2c0,0,0,0,0,0c16.5,22,25.3,48.3,25.3,76.1C413.1,775.1,356.1,832.1,286,832.1z M399.5,606.8
		c-0.8-0.9-1.7-1.7-2.6-2.6c-1.7-1.9-3.4-3.6-5.2-5.4c-2.2-2.2-4.5-4.3-6.8-6.4c-1.9-1.6-3.8-3.2-5.7-4.8c-2.5-1.9-5-3.8-7.5-5.6
		c-2-1.4-4-2.8-6.1-4.1c-2.7-1.7-5.4-3.2-8.2-4.7c-2.1-1.2-4.2-2.3-6.4-3.4c-2.9-1.4-5.9-2.6-8.8-3.8c-2.2-0.9-4.3-1.8-6.5-2.6
		c-3.2-1.1-6.4-2-9.6-2.9c-2.1-0.6-4.2-1.3-6.4-1.8c-3.6-0.8-7.3-1.4-11-2c-1.8-0.3-3.7-0.7-5.5-0.9c-5.6-0.6-11.2-1-16.9-1
		c-5.7,0-11.4,0.4-17,1c-1.9,0.2-3.7,0.6-5.5,0.9c-3.7,0.6-7.4,1.1-11.1,1.9c-2.2,0.5-4.2,1.2-6.4,1.7c-3.2,0.9-6.5,1.8-9.6,2.9
		c-2.2,0.8-4.3,1.7-6.5,2.6c-3,1.2-5.9,2.4-8.8,3.8c-2.2,1-4.3,2.2-6.4,3.3c-2.8,1.5-5.5,3-8.2,4.7c-2.1,1.3-4.1,2.7-6.1,4.1
		c-2.6,1.8-5.1,3.6-7.5,5.6c-1.9,1.5-3.8,3.1-5.7,4.7c-2.4,2.1-4.7,4.3-6.9,6.5c-1.7,1.7-3.5,3.5-5.1,5.3c-0.9,1-1.8,1.8-2.7,2.8
		C116.2,569,81.5,504.6,81.5,436.5c0-14.2,1.4-28,4.4-42c0-0.1,0-0.2,0.1-0.3c0.7-3.5,1.7-7,2.7-10.4c0.6-2.3,1.1-4.6,1.8-6.9
		c1-3.3,2.3-6.5,3.4-9.7c0.8-2.3,1.5-4.7,2.5-6.9c1.2-3.1,2.7-6,4.1-9c1.1-2.3,2-4.7,3.2-6.9c1.4-2.8,3.1-5.5,4.6-8.2
		c1.3-2.3,2.5-4.7,3.9-6.9c1.6-2.6,3.4-5,5.1-7.5c1.5-2.3,3-4.6,4.6-6.8c1.8-2.4,3.7-4.6,5.6-6.9c1.8-2.2,3.4-4.4,5.3-6.5
		c1.9-2.2,4-4.2,6-6.2c2-2.1,3.9-4.2,5.9-6.1c2-1.9,4.1-3.7,6.2-5.5c2.2-2,4.4-4,6.6-5.8c2.1-1.7,4.3-3.2,6.5-4.9
		c2.4-1.8,4.8-3.7,7.2-5.4c2.3-1.5,4.6-2.9,6.9-4.3c2.5-1.6,5-3.3,7.6-4.7c2.4-1.4,5-2.5,7.4-3.8c2.6-1.3,5.2-2.8,7.9-4
		c2.5-1.2,5.1-2.1,7.7-3.2c2.8-1.1,5.5-2.4,8.3-3.4c2.6-1,5.4-1.7,8-2.5c2.8-0.9,5.6-1.9,8.5-2.7c3-0.8,6.1-1.4,9.1-2
		c2.7-0.6,5.3-1.3,8-1.8c4.1-0.7,8.3-1.2,12.5-1.7c1.7-0.2,3.4-0.5,5.1-0.7c5.9-0.5,11.9-0.8,17.9-0.8c4.6,0,9.2,0.2,13.8,0.5
		c11.8,0.8,23.5,2.6,35.1,5.4c64.3,15.8,116.8,61.6,141.1,122.9c-1.3,2.7-2.3,5.5-3.4,8.2c-1.1,2.7-2.3,5.3-3.3,8
		c-1.4,3.8-2.5,7.7-3.6,11.6c-0.7,2.6-1.6,5.1-2.2,7.8c-1,4.4-1.7,8.8-2.4,13.3c-0.3,2.2-0.9,4.4-1.1,6.6
		c-0.8,6.7-1.2,13.5-1.2,20.3s0.4,13.5,1.2,20.3c0.3,2.2,0.8,4.4,1.1,6.6c0.7,4.5,1.4,8.9,2.4,13.3c0.6,2.6,1.5,5.1,2.2,7.7
		c1.1,3.9,2.2,7.8,3.6,11.6c1,2.7,2.2,5.3,3.3,7.9c1.2,2.7,2.1,5.6,3.4,8.3C460.8,550.5,434,583.7,399.5,606.8z M632.3,587.1
		c-56.2,0-107.4-31-133.5-80.9c-11.3-21.7-17.1-45.1-17.1-69.7c0-24.6,5.7-48.1,17.1-69.7c26.2-49.9,77.3-80.9,133.5-80.9
		c83,0,150.6,67.6,150.6,150.6S715.4,587.1,632.3,587.1z"/>
	<path fill="#1D1D1B" d="M548.4,352.5c-22.4,22.4-34.8,52.2-34.8,83.9c0,6.3,5.1,11.5,11.5,11.5c6.3,0,11.5-5.1,11.5-11.5
		c0-25.6,10-49.6,28-67.7c4.5-4.5,4.5-11.8,0-16.3C560.2,348.1,552.9,348.1,548.4,352.5z"/>
</g>
</svg>
