<?xml version="1.0" encoding="utf-8"?>
<!-- Generator: Adobe Illustrator 25.2.1, SVG Export Plug-In . SVG Version: 6.00 Build 0)  -->
<svg version="1.1" id="Layer_1" xmlns="http://www.w3.org/2000/svg" xmlns:xlink="http://www.w3.org/1999/xlink" x="0px" y="0px"
	 viewBox="0 0 801.6 800.5" enable-background="new 0 0 801.6 800.5" xml:space="preserve">
<g>
	<path fill="#1D1D1B" d="M232.5,393.1c0-64.1-52.1-116.2-116.2-116.2C52.1,276.9,0,329,0,393.1s52.1,116.2,116.2,116.2
		C180.3,509.4,232.5,457.2,232.5,393.1z M23.9,393.1c0-50.9,41.4-92.4,92.4-92.4s92.4,41.4,92.4,92.4c0,50.9-41.4,92.4-92.4,92.4
		S23.9,444,23.9,393.1z"/>
	<path fill="#1D1D1B" d="M763.6,66.6C763.6,29.9,733.7,0,697,0c-36.7,0-66.6,29.9-66.6,66.6c0,36.7,29.9,66.6,66.6,66.6
		C733.7,133.1,763.6,103.3,763.6,66.6z M654.3,66.6c0-23.5,19.2-42.7,42.7-42.7c23.5,0,42.7,19.1,42.7,42.7
		c0,23.5-19.1,42.7-42.7,42.7C673.5,109.2,654.3,90.1,654.3,66.6z"/>
	<path fill="#1D1D1B" d="M76.2,148.2c0,36.7,29.9,66.5,66.6,66.5c36.7,0,66.6-29.9,66.6-66.5c0-36.7-29.9-66.6-66.6-66.6
		C106.1,81.7,76.2,111.5,76.2,148.2z M185.5,148.2c0,23.5-19.1,42.7-42.7,42.7c-23.5,0-42.7-19.1-42.7-42.7
		c0-23.5,19.1-42.7,42.7-42.7C166.3,105.5,185.5,124.7,185.5,148.2z"/>
	<path fill="#1D1D1B" d="M381.4,733.9c0-36.7-29.9-66.6-66.6-66.6c-36.7,0-66.6,29.9-66.6,66.6c0,36.7,29.9,66.6,66.6,66.6
		C351.5,800.5,381.4,770.6,381.4,733.9z M272.2,733.9c0-23.5,19.1-42.7,42.7-42.7c23.5,0,42.7,19.1,42.7,42.7
		c0,23.5-19.1,42.7-42.7,42.7C291.3,776.6,272.2,757.5,272.2,733.9z"/>
	<path fill="#1D1D1B" d="M248.3,405.6c0,152.5,124.1,276.6,276.6,276.6s276.6-124.1,276.6-276.6c0-152.5-124.1-276.6-276.6-276.6
		S248.3,253.1,248.3,405.6z M777.7,405.6c0,139.4-113.4,252.8-252.8,252.8c-139.4,0-252.8-113.4-252.8-252.8
		s113.4-252.8,252.8-252.8C664.3,152.9,777.7,266.2,777.7,405.6z"/>
	<path fill="#1D1D1B" d="M379.1,259.8c-38.9,38.9-60.4,90.7-60.4,145.8c0,6.6,5.3,11.9,11.9,11.9c6.6,0,11.9-5.3,11.9-11.9
		c0-48.7,19-94.5,53.4-128.9c4.7-4.7,4.7-12.2,0-16.9C391.3,255.2,383.8,255.2,379.1,259.8z"/>
	<path fill="#1D1D1B" d="M442.6,216.5c-6,2.6-8.8,9.7-6.2,15.7c2,4.5,6.3,7.2,10.9,7.2c1.6,0,3.2-0.3,4.8-1
		c23-10,47.5-15.1,72.8-15.1c6.6,0,11.9-5.3,11.9-11.9c0-6.6-5.3-11.9-11.9-11.9C496.3,199.4,468.6,205.2,442.6,216.5z"/>
</g>
</svg>
