<?xml version="1.0" encoding="utf-8"?>
<!-- Generator: Adobe Illustrator 25.2.1, SVG Export Plug-In . SVG Version: 6.00 Build 0)  -->
<svg version="1.1" id="Layer_1" xmlns="http://www.w3.org/2000/svg" xmlns:xlink="http://www.w3.org/1999/xlink" x="0px" y="0px"
	 viewBox="0 0 800.5 882.4" enable-background="new 0 0 800.5 882.4" xml:space="preserve">
<g>
	<path fill="#1D1D1B" d="M722.6,483.7c0-87.2-70.9-158.1-158.1-158.1c-87.2,0-158.1,70.9-158.1,158.1c0,87.2,70.9,158.1,158.1,158.1
		C651.7,641.9,722.6,570.9,722.6,483.7z M430.6,483.7c0-73.8,60.1-133.9,133.9-133.9c73.8,0,133.9,60.1,133.9,133.9
		c0,73.8-60.1,133.9-133.9,133.9C490.7,617.6,430.6,557.6,430.6,483.7z"/>
	<path fill="#1D1D1B" d="M491.8,411.1c-19.4,19.4-30.1,45.2-30.1,72.7c0,6.7,5.4,12.1,12.1,12.1c6.7,0,12.1-5.4,12.1-12.1
		c0-21,8.2-40.7,23-55.5c4.7-4.7,4.7-12.4,0-17.1C504.2,406.3,496.6,406.3,491.8,411.1z"/>
	<path fill="#1D1D1B" d="M733,321c37.2,0,67.5-30.3,67.5-67.5c0-37.2-30.3-67.5-67.5-67.5c-37.2,0-67.5,30.3-67.5,67.5
		C665.4,290.7,695.7,321,733,321z M733,210.1c23.9,0,43.3,19.4,43.3,43.3c0,23.9-19.4,43.3-43.3,43.3c-23.9,0-43.3-19.4-43.3-43.3
		C689.7,229.6,709.1,210.1,733,210.1z"/>
	<path fill="#1D1D1B" d="M677.6,790.1c37.2,0,67.5-30.3,67.5-67.5c0-37.2-30.3-67.5-67.5-67.5c-37.2,0-67.5,30.3-67.5,67.5
		C610,759.8,640.3,790.1,677.6,790.1z M677.6,679.3c23.9,0,43.3,19.4,43.3,43.3c0,23.9-19.4,43.3-43.3,43.3
		c-23.9,0-43.3-19.4-43.3-43.3C634.2,698.7,653.7,679.3,677.6,679.3z"/>
	<path fill="#1D1D1B" d="M173.4,202.7c37.2,0,67.5-30.3,67.5-67.5c0-37.2-30.3-67.5-67.5-67.5s-67.5,30.3-67.5,67.5
		C105.8,172.4,136.1,202.7,173.4,202.7z M173.4,91.8c23.9,0,43.3,19.4,43.3,43.3c0,23.9-19.4,43.3-43.3,43.3
		c-23.9,0-43.3-19.4-43.3-43.3C130.1,111.3,149.5,91.8,173.4,91.8z"/>
	<path fill="#1D1D1B" d="M508,764.4c0-65-52.9-118-118-118c-65,0-118,52.9-118,118c0,65,52.9,118,118,118
		C455.1,882.4,508,829.5,508,764.4z M390.1,858.1c-51.7,0-93.7-42.1-93.7-93.7c0-51.7,42.1-93.7,93.7-93.7c51.7,0,93.7,42,93.7,93.7
		C483.8,816.1,441.8,858.1,390.1,858.1z"/>
	<path fill="#1D1D1B" d="M517,235.9c65,0,118-52.9,118-118c0-65-52.9-118-118-118c-65,0-118,52.9-118,118
		C399,183,451.9,235.9,517,235.9z M517,24.2c51.7,0,93.7,42,93.7,93.7s-42.1,93.7-93.7,93.7s-93.7-42-93.7-93.7S465.3,24.2,517,24.2
		z"/>
	<path fill="#1D1D1B" d="M118,500.5c65,0,118-52.9,118-118c0-65-52.9-118-118-118c-65,0-118,52.9-118,118
		C0,447.6,52.9,500.5,118,500.5z M118,288.8c51.7,0,93.7,42.1,93.7,93.7c0,51.7-42,93.7-93.7,93.7c-51.7,0-93.7-42-93.7-93.7
		C24.2,330.8,66.3,288.8,118,288.8z"/>
	<path fill="#1D1D1B" d="M334.7,383.6c37.2,0,67.5-30.3,67.5-67.5c0-37.2-30.3-67.5-67.5-67.5c-37.2,0-67.5,30.3-67.5,67.5
		C267.1,353.3,297.4,383.6,334.7,383.6z M334.7,272.8c23.9,0,43.3,19.4,43.3,43.3c0,23.9-19.4,43.3-43.3,43.3
		c-23.9,0-43.3-19.4-43.3-43.3C291.3,292.2,310.8,272.8,334.7,272.8z"/>
</g>
</svg>
