<?xml version="1.0" encoding="utf-8"?>
<!-- Generator: Adobe Illustrator 25.2.1, SVG Export Plug-In . SVG Version: 6.00 Build 0)  -->
<svg version="1.1" id="Layer_1" xmlns="http://www.w3.org/2000/svg" xmlns:xlink="http://www.w3.org/1999/xlink" x="0px" y="0px"
	 viewBox="0 0 803.3 885.2" enable-background="new 0 0 803.3 885.2" xml:space="preserve">
<g>
	<path fill="#1D1D1B" d="M631.2,473.1c-87.8,0-159.3,71.4-159.3,159.3c0,87.8,71.5,159.3,159.3,159.3c87.8,0,159.3-71.5,159.3-159.3
		C790.5,544.5,719,473.1,631.2,473.1z M631.2,767.2c-74.4,0-134.9-60.5-134.9-134.9s60.5-134.9,134.9-134.9
		c74.4,0,134.9,60.5,134.9,134.9S705.5,767.2,631.2,767.2z"/>
	<path fill="#1D1D1B" d="M558,559.2c-19.6,19.6-30.3,45.6-30.3,73.2c0,6.7,5.5,12.2,12.2,12.2c6.7,0,12.2-5.5,12.2-12.2
		c0-21.1,8.2-41,23.2-55.9c4.8-4.8,4.8-12.5,0-17.3C570.5,554.4,562.7,554.4,558,559.2z"/>
	<path fill="#1D1D1B" d="M318.6,303.6c0-87.8-71.5-159.3-159.3-159.3C71.5,144.3,0,215.8,0,303.6c0,87.8,71.5,159.3,159.3,159.3
		C247.1,462.9,318.6,391.4,318.6,303.6z M159.3,438.5c-74.4,0-134.9-60.5-134.9-134.9s60.5-134.9,134.9-134.9
		c74.4,0,134.9,60.5,134.9,134.9S233.6,438.5,159.3,438.5z"/>
	<path fill="#1D1D1B" d="M86.1,230.4c-19.6,19.6-30.3,45.6-30.3,73.2c0,6.7,5.5,12.2,12.2,12.2c6.7,0,12.2-5.5,12.2-12.2
		c0-21.1,8.2-41,23.2-55.9c4.8-4.8,4.8-12.5,0-17.3C98.6,225.6,90.8,225.6,86.1,230.4z"/>
	<path fill="#1D1D1B" d="M292.5,647.5c-65.5,0-118.8,53.3-118.8,118.8c0,65.5,53.3,118.8,118.8,118.8c65.5,0,118.8-53.3,118.8-118.8
		C411.3,700.8,358,647.5,292.5,647.5z M292.5,860.8c-52.1,0-94.4-42.4-94.4-94.4c0-52.1,42.4-94.4,94.4-94.4
		c52.1,0,94.4,42.4,94.4,94.4C386.9,818.4,344.6,860.8,292.5,860.8z"/>
	<path fill="#1D1D1B" d="M405.7,320c0,65.5,53.3,118.8,118.8,118.8c65.5,0,118.8-53.3,118.8-118.8s-53.3-118.8-118.8-118.8
		C459,201.2,405.7,254.5,405.7,320z M619,320c0,52.1-42.4,94.4-94.4,94.4c-52.1,0-94.4-42.4-94.4-94.4c0-52.1,42.4-94.4,94.4-94.4
		C576.6,225.6,619,268,619,320z"/>
	<path fill="#1D1D1B" d="M377.5,469c-37.5,0-68,30.5-68,68c0,37.5,30.5,68,68,68c37.5,0,68-30.5,68-68
		C445.5,499.5,415,469,377.5,469z M377.5,580.6c-24.1,0-43.6-19.6-43.6-43.6c0-24.1,19.6-43.6,43.6-43.6c24.1,0,43.6,19.6,43.6,43.6
		C421.1,561.1,401.5,580.6,377.5,580.6z"/>
	<path fill="#1D1D1B" d="M735.3,171c-37.5,0-68,30.5-68,68c0,37.5,30.5,68,68,68c37.5,0,68-30.5,68-68
		C803.3,201.5,772.8,171,735.3,171z M735.3,282.7c-24.1,0-43.6-19.6-43.6-43.6c0-24.1,19.6-43.6,43.6-43.6
		c24.1,0,43.6,19.6,43.6,43.6C778.9,263.1,759.3,282.7,735.3,282.7z"/>
	<path fill="#1D1D1B" d="M292.5,136.1c37.5,0,68-30.5,68-68c0-37.5-30.5-68-68-68c-37.5,0-68,30.5-68,68
		C224.5,105.5,255,136.1,292.5,136.1z M292.5,24.4c24.1,0,43.6,19.6,43.6,43.6c0,24.1-19.6,43.6-43.6,43.6
		c-24.1,0-43.6-19.6-43.6-43.6C248.9,44,268.5,24.4,292.5,24.4z"/>
</g>
</svg>
