<?xml version="1.0" encoding="utf-8"?>
<!-- Generator: Adobe Illustrator 25.2.1, SVG Export Plug-In . SVG Version: 6.00 Build 0)  -->
<svg version="1.1" id="Layer_1" xmlns="http://www.w3.org/2000/svg" xmlns:xlink="http://www.w3.org/1999/xlink" x="0px" y="0px"
	 viewBox="0 0 836.7 801.6" enable-background="new 0 0 836.7 801.6" xml:space="preserve">
<g>
	<path fill="#1D1D1B" d="M535,584.7c-59.8,0-108.5,48.7-108.5,108.5S475.2,801.6,535,801.6c59.8,0,108.5-48.7,108.5-108.5
		S594.8,584.7,535,584.7z M535,779.4c-47.5,0-86.2-38.7-86.2-86.2c0-47.5,38.7-86.2,86.2-86.2c47.5,0,86.2,38.7,86.2,86.2
		C621.2,740.7,582.5,779.4,535,779.4z"/>
	<path fill="#1D1D1B" d="M247.7,655.4c-34.2,0-62.1,27.9-62.1,62.1c0,34.3,27.9,62.1,62.1,62.1c34.3,0,62.1-27.9,62.1-62.1
		C309.9,683.2,282,655.4,247.7,655.4z M247.7,757.3c-22,0-39.8-17.9-39.8-39.8c0-22,17.9-39.8,39.8-39.8c22,0,39.8,17.9,39.8,39.8
		C287.6,739.5,269.7,757.3,247.7,757.3z"/>
	<path fill="#1D1D1B" d="M122.2,208.7C85.8,245,65.8,293.3,65.8,344.7c0,6.2,5,11.1,11.1,11.1c6.2,0,11.1-5,11.1-11.1
		c0-45.5,17.7-88.2,49.8-120.3c4.4-4.4,4.4-11.4,0-15.8C133.6,204.3,126.5,204.3,122.2,208.7z"/>
	<path fill="#1D1D1B" d="M258.2,152.3c-26.7,0-52.6,5.4-76.9,16c-5.6,2.5-8.2,9-5.8,14.7c1.8,4.2,5.9,6.7,10.2,6.7
		c1.5,0,3-0.3,4.4-0.9c21.5-9.4,44.3-14.1,68-14.1c6.2,0,11.1-5,11.1-11.1C269.4,157.3,264.4,152.3,258.2,152.3z"/>
	<path fill="#1D1D1B" d="M695.3,275.9c4.7-17.9,7.1-36.4,7.1-55.2C702.5,99,603.5,0,481.8,0c-70.6,0-136.6,33.8-178.1,90.7
		c-15-2.6-30.3-4.1-45.6-4.1C115.8,86.6,0,202.4,0,344.8c0,142.4,115.8,258.2,258.2,258.2c105.6,0,200.9-65.1,239.7-162.6
		c16.6-1.2,32.8-4.1,48.5-8.9c5.3,75.4,68.2,135.1,144.9,135.1c80.2,0,145.4-65.2,145.4-145.4C836.7,342.3,773.7,278,695.3,275.9z
		 M258.2,580.7c-130.1,0-235.9-105.8-235.9-235.9c0-130.1,105.8-235.9,235.9-235.9c16.2,0,32.4,1.6,48.2,4.9
		c108.8,22.6,187.8,119.7,187.8,231c0,7.3-0.4,14.5-1,21.6c-1.9,20.4-6.3,40.3-13.5,59.6C445.9,518.5,356.9,580.7,258.2,580.7z
		 M506.8,414.3c0.6-2.3,1.2-4.6,1.8-6.8c1.1-4.5,2.2-9.1,3.1-13.7c0.5-2.4,0.9-4.9,1.3-7.3c0.8-4.7,1.4-9.5,1.9-14.3
		c0.2-2.2,0.5-4.4,0.7-6.5c0.6-6.9,0.9-13.9,0.9-20.9c0-7.4-0.3-14.8-1-22.1c-0.2-2.4-0.6-4.8-0.9-7.3c-0.6-4.8-1.1-9.7-1.9-14.4
		c-0.5-2.9-1.2-5.7-1.8-8.5c-0.9-4.2-1.7-8.5-2.8-12.7c-0.8-3-1.8-5.9-2.6-8.8c-1.2-3.9-2.3-7.9-3.7-11.7c-1.1-3-2.3-5.9-3.4-8.8
		c-1.5-3.7-2.9-7.4-4.5-11c-1.3-2.9-2.8-5.7-4.2-8.6c-1.7-3.5-3.5-7-5.4-10.4c-1.6-2.8-3.2-5.6-4.9-8.3c-2-3.3-4-6.6-6.1-9.8
		c-1.8-2.7-3.7-5.3-5.6-7.9c-2.2-3.1-4.5-6.2-6.9-9.2c-2-2.5-4.1-5-6.2-7.5c-2.5-2.9-5-5.8-7.6-8.6c-2.2-2.4-4.4-4.7-6.7-6.9
		c-2.7-2.7-5.5-5.4-8.4-8c-2.4-2.2-4.8-4.3-7.2-6.4c-3-2.5-6-5-9.1-7.3c-2.5-2-5.1-3.9-7.7-5.8c-3.2-2.3-6.4-4.5-9.7-6.6
		c-2.7-1.7-5.4-3.5-8.1-5.1c-3.4-2-6.9-3.9-10.4-5.8c-2.8-1.5-5.6-3-8.5-4.4c-3.6-1.8-7.4-3.4-11.1-5c-2.9-1.2-5.8-2.5-8.7-3.7
		c-3.9-1.5-7.8-2.8-11.8-4.1c-3-1-5.9-2-9-2.9c-0.9-0.3-1.9-0.6-2.8-0.9c37.5-46.4,94-73.7,154.2-73.7c109.4,0,198.3,89,198.3,198.3
		c0,19.3-2.8,38.2-8.2,56.3c-1.1,0.1-2.1,0.4-3.2,0.6c-2,0.3-4,0.7-5.9,1.1c-2.3,0.5-4.6,1-6.9,1.5c-1.9,0.5-3.9,1-5.8,1.5
		c-2.2,0.7-4.4,1.4-6.6,2.1c-1.9,0.6-3.7,1.3-5.6,2c-2.1,0.8-4.2,1.8-6.3,2.7c-1.8,0.8-3.6,1.6-5.4,2.5c-2,1-3.9,2.1-5.9,3.2
		c-1.7,1-3.5,1.9-5.2,3c-1.8,1.1-3.6,2.4-5.4,3.6c-1.7,1.1-3.4,2.3-5.1,3.5c-1.6,1.2-3.2,2.5-4.7,3.8c-1.7,1.4-3.4,2.7-5.1,4.1
		c-1.1,0.9-2,2-3.1,3c-7.1,6.6-13.5,13.9-19.1,21.8c-0.7,0.9-1.4,1.8-2,2.7c-1.6,2.3-3,4.8-4.5,7.2c-0.7,1.1-1.4,2.2-2,3.4
		c-1.3,2.4-2.6,4.9-3.8,7.4c-0.6,1.3-1.3,2.5-1.9,3.8c-1.1,2.5-2.1,5-3.1,7.5c-0.5,1.4-1.1,2.8-1.6,4.2c-0.9,2.5-1.6,5-2.4,7.5
		c-0.5,1.6-0.9,3.2-1.3,4.8c-0.6,2.4-1.1,4.9-1.6,7.3c-0.4,1.8-0.7,3.7-1,5.5c-0.4,2.3-0.7,4.6-0.9,6.9c-0.1,1-0.3,1.9-0.4,2.9
		c-13.1,4.5-26.6,7.7-40.5,9.3C506.3,416.4,506.5,415.3,506.8,414.3z M691.3,544.2c-67.9,0-123.1-55.2-123.1-123.1
		c0-1.4,0-3,0.1-4.7c0.3-7.8,1.3-15.4,3-22.7c11.7-51.5,55.7-90.9,110.1-95.3c3.2-0.3,6.6-0.4,9.9-0.4
		c67.9,0,123.1,55.2,123.1,123.1C814.4,489,759.2,544.2,691.3,544.2z"/>
	<path fill="#1D1D1B" d="M624.4,354.2c-17.9,17.8-27.7,41.6-27.7,66.8c0,6.2,5,11.1,11.1,11.1s11.1-5,11.1-11.1
		c0-19.3,7.5-37.4,21.2-51.1c4.4-4.4,4.4-11.4,0-15.8C635.8,349.9,628.8,349.9,624.4,354.2z"/>
</g>
</svg>
