<?xml version="1.0" encoding="utf-8"?>
<!-- Generator: Adobe Illustrator 25.2.1, SVG Export Plug-In . SVG Version: 6.00 Build 0)  -->
<svg version="1.1" id="Layer_1" xmlns="http://www.w3.org/2000/svg" xmlns:xlink="http://www.w3.org/1999/xlink" x="0px" y="0px"
	 viewBox="0 0 842 801.7" enable-background="new 0 0 842 801.7" xml:space="preserve">
<g>
	<path fill="#1D1D1B" d="M260.6,418.1c-19.3,19.3-29.9,44.9-29.9,72.1c0,6.3,5.1,11.4,11.4,11.4c6.3,0,11.4-5.1,11.4-11.4
		c0-21.1,8.2-41,23.2-56c4.5-4.5,4.5-11.7,0-16.1C272.2,413.6,265,413.6,260.6,418.1z"/>
	<path fill="#1D1D1B" d="M754.2,256.1c0-1.6,0.1-3.2,0.1-4.9C754.4,112.7,641.7,0,503.3,0C364.8,0,252.1,112.7,252.1,251.2
		c0,32.7,6.2,64.5,18.5,94.5c-57.4,24.6-95.1,81.2-95.1,144.5c0,86.7,70.6,157.3,157.3,157.3c82.8,0,150.7-64.3,156.7-145.6
		c4.7,0.3,9.3,0.4,13.8,0.4c19.8,0,39.5-2.5,58.8-7.1c29.7,37.1,74.8,59.2,122.6,59.2c86.7,0,157.3-70.6,157.3-157.3
		C842,336.9,807.8,282.4,754.2,256.1z M332.7,624.7c-74.2,0-134.5-60.3-134.5-134.5c0-54.3,32.5-102.9,81.8-123.8
		c0.5,0.9,1,1.8,1.5,2.7c1.1,2,2.2,4,3.3,6c1.5,2.6,3,5.2,4.6,7.7c1.2,1.9,2.4,3.9,3.7,5.8c1.6,2.5,3.3,4.9,5,7.3
		c1.3,1.8,2.6,3.7,4,5.5c1.8,2.4,3.6,4.7,5.5,7.1c1.4,1.7,2.8,3.5,4.2,5.1c2,2.3,4,4.6,6.1,6.8c1.4,1.6,2.9,3.1,4.3,4.7
		c2.2,2.3,4.6,4.6,6.9,6.8c1.4,1.3,2.8,2.7,4.2,4c2.7,2.5,5.5,4.9,8.3,7.2c1.1,1,2.2,2,3.4,2.9c8.1,6.5,16.5,12.6,25.4,18.1
		c1.1,0.7,2.3,1.4,3.5,2.1c3.3,2,6.6,3.9,9.9,5.8c1.5,0.8,3.1,1.6,4.7,2.4c3.1,1.6,6.1,3.1,9.2,4.6c1.7,0.8,3.5,1.6,5.3,2.3
		c3,1.3,6,2.6,9.1,3.8c1.9,0.7,3.8,1.4,5.6,2.1c3,1.1,6,2.2,9.1,3.1c2,0.6,3.9,1.2,5.9,1.8c3,0.9,6.1,1.7,9.2,2.5
		c2,0.5,4.1,1,6.1,1.5c3.1,0.7,6.2,1.3,9.3,1.9c2.1,0.4,4.2,0.8,6.3,1.1c1.1,0.2,2.1,0.4,3.2,0.6C462,569.4,403.7,624.7,332.7,624.7
		z M479.8,478.3c-14.9-1.5-29.5-4.5-43.6-8.9c-61.1-18.9-112.7-63.1-140.1-122.2c-14.1-30.2-21.2-62.5-21.2-96
		c0-125.9,102.5-228.4,228.4-228.4c125.9,0,228.3,102.5,228.3,228.4c0,3.8-0.1,7.6-0.3,11.4c-4.8,98.9-72.3,182.8-167.9,208.8
		C536.5,478.8,509,481.2,479.8,478.3z M684.7,531.6c-37.7,0-73.5-15.9-98.8-43.3c0.5-0.2,1-0.4,1.5-0.6c2.2-0.8,4.3-1.7,6.4-2.5
		c3.8-1.5,7.6-3,11.3-4.6c2.3-1,4.5-2.1,6.7-3.2c3.5-1.7,6.9-3.4,10.3-5.2c2.2-1.2,4.5-2.5,6.7-3.7c3.3-1.9,6.5-3.8,9.6-5.8
		c2.1-1.4,4.3-2.7,6.4-4.2c3.1-2.1,6.1-4.3,9.1-6.5c2-1.5,4-3,5.9-4.5c3-2.4,5.9-4.9,8.8-7.4c1.8-1.5,3.6-3,5.3-4.6
		c3.1-2.8,6-5.8,8.9-8.8c1.4-1.4,2.8-2.8,4.2-4.2c4.1-4.4,8-8.9,11.8-13.6c0.2-0.2,0.4-0.4,0.5-0.7c3.7-4.7,7.3-9.5,10.7-14.4
		c1.2-1.8,2.4-3.7,3.6-5.5c2.1-3.3,4.3-6.6,6.3-10c1.3-2.2,2.5-4.5,3.7-6.8c1.7-3.1,3.4-6.3,5-9.5c1.2-2.4,2.3-4.9,3.4-7.4
		c1.4-3.2,2.8-6.3,4.1-9.6c1-2.6,2-5.2,3-7.8c1.2-3.2,2.3-6.5,3.3-9.8c0.8-2.7,1.7-5.3,2.4-8c1-3.4,1.8-6.9,2.6-10.3
		c0.6-2.7,1.3-5.3,1.8-8c0.8-3.7,1.3-7.5,1.9-11.3c0.4-2.5,0.8-4.9,1.1-7.4c0.1-0.5,0.2-1,0.2-1.5c40.9,23.9,66.6,67.9,66.6,116.1
		C819.2,471.3,758.8,531.6,684.7,531.6z"/>
	<path fill="#1D1D1B" d="M370.8,118.7c-35.4,35.4-54.9,82.4-54.9,132.5c0,6.3,5.1,11.4,11.4,11.4c6.3,0,11.4-5.1,11.4-11.4
		c0-44,17.1-85.3,48.2-116.3c4.5-4.5,4.5-11.7,0-16.1C382.4,114.3,375.2,114.3,370.8,118.7z"/>
	<path fill="#1D1D1B" d="M503.2,63.8c-26,0-51.2,5.2-74.8,15.5c-5.8,2.5-8.4,9.2-5.9,15c1.9,4.3,6.1,6.9,10.5,6.9
		c1.5,0,3.1-0.3,4.5-0.9c20.8-9.1,42.9-13.6,65.7-13.6c6.3,0,11.4-5.1,11.4-11.4C514.7,68.9,509.6,63.8,503.2,63.8z"/>
	<path fill="#1D1D1B" d="M115.8,353.8c53.3,0,96.6-43.3,96.6-96.6c0-53.3-43.3-96.6-96.6-96.6c-53.3,0-96.6,43.3-96.6,96.6
		C19.2,310.5,62.5,353.8,115.8,353.8z M115.8,183.4c40.7,0,73.8,33.1,73.8,73.8S156.5,331,115.8,331S42,297.9,42,257.2
		S75.1,183.4,115.8,183.4z"/>
	<path fill="#1D1D1B" d="M583.9,608.5c-53.3,0-96.6,43.3-96.6,96.6c0,53.3,43.3,96.6,96.6,96.6c53.3,0,96.6-43.3,96.6-96.6
		C680.5,651.9,637.1,608.5,583.9,608.5z M583.9,778.9c-40.7,0-73.8-33.1-73.8-73.8s33.1-73.8,73.8-73.8c40.7,0,73.8,33.1,73.8,73.8
		S624.5,778.9,583.9,778.9z"/>
	<path fill="#1D1D1B" d="M63.6,489.7C28.5,489.7,0,518.3,0,553.3c0,35.1,28.5,63.6,63.6,63.6c35.1,0,63.6-28.5,63.6-63.6
		C127.2,518.3,98.7,489.7,63.6,489.7z M63.6,594.1c-22.5,0-40.8-18.3-40.8-40.8c0-22.5,18.3-40.8,40.8-40.8
		c22.5,0,40.8,18.3,40.8,40.8C104.4,575.8,86.1,594.1,63.6,594.1z"/>
</g>
</svg>
