<?xml version="1.0" encoding="utf-8"?>
<!-- Generator: Adobe Illustrator 25.2.1, SVG Export Plug-In . SVG Version: 6.00 Build 0)  -->
<svg version="1.1" id="Layer_1" xmlns="http://www.w3.org/2000/svg" xmlns:xlink="http://www.w3.org/1999/xlink" x="0px" y="0px"
	 viewBox="0 0 802.1 808.1" enable-background="new 0 0 802.1 808.1" xml:space="preserve">
<g>
	<path fill="#1D1D1B" d="M706.2,476.8c-52.9,0-95.9,43-95.9,95.9c0,52.9,43,95.9,95.9,95.9c52.9,0,95.9-43,95.9-95.9
		C802.1,519.8,759.1,476.8,706.2,476.8z M706.2,645.9c-40.4,0-73.2-32.9-73.2-73.2c0-40.4,32.8-73.2,73.2-73.2s73.2,32.9,73.2,73.2
		C779.5,613.1,746.6,645.9,706.2,645.9z"/>
	<path fill="#1D1D1B" d="M524.6,417.5c0-144.7-117.7-262.4-262.3-262.4C117.7,155.1,0,272.8,0,417.5c0,113.4,71.5,212.4,178.5,248.4
		c25.2,84,102.9,142.2,191.1,142.2c110.1,0,199.7-89.6,199.7-199.7c0-49.7-18.3-96.8-51.2-133.3
		C522.3,456.2,524.6,436.9,524.6,417.5z M22.6,417.5c0-132.2,107.5-239.8,239.6-239.8c132.1,0,239.6,107.6,239.6,239.8
		c0,12.9-1.1,25.9-3.1,38.6c-4.8-4.1-9.8-7.9-14.9-11.5c-1.6-1.1-3.4-2.1-5-3.2c-3.6-2.4-7.2-4.7-11-6.8c-2.1-1.2-4.2-2.2-6.3-3.3
		c-3.5-1.8-6.9-3.5-10.5-5.1c-2.3-1-4.6-2-7-2.9c-3.5-1.4-7.1-2.7-10.7-4c-2.4-0.8-4.8-1.6-7.2-2.3c-3.7-1.1-7.5-2-11.3-2.9
		c-2.4-0.5-4.7-1.1-7.1-1.6c-4.2-0.8-8.4-1.4-12.7-1.9c-2.1-0.3-4.1-0.6-6.2-0.8c-6.4-0.6-12.8-1-19.3-1
		c-110.1,0-199.7,89.6-199.7,199.7c0,4.9,0.2,9.8,0.6,14.6c0.1,1.6,0.3,3.1,0.5,4.6c0.3,3.3,0.7,6.5,1.1,9.8
		c0.1,0.7,0.1,1.5,0.3,2.2C82,603.3,22.6,516.3,22.6,417.5z M369.6,785.5c-80.1,0-150.4-54-171.1-131.3c-3.9-14.6-5.9-30-5.9-45.7
		c0-97.6,79.4-177,177-177c12.2,0,24.2,1.2,35.9,3.6c35,7.1,66.9,24.7,92.2,51.1c31.6,32.9,49,76.4,49,122.3
		C546.6,706.1,467.2,785.5,369.6,785.5z"/>
	<path fill="#1D1D1B" d="M273.5,512.3c-25.7,25.7-39.8,59.8-39.8,96.1c0,6.3,5.1,11.3,11.3,11.3c6.3,0,11.3-5.1,11.3-11.3
		c0-30.3,11.8-58.7,33.2-80.1c4.4-4.4,4.4-11.6,0-16C285.1,507.9,277.9,507.9,273.5,512.3z"/>
	<path fill="#1D1D1B" d="M767.6,175.9c0-81.5-66.3-147.7-147.7-147.7c-81.5,0-147.7,66.3-147.7,147.7c0,81.5,66.3,147.7,147.7,147.7
		C701.3,323.7,767.6,257.4,767.6,175.9z M494.7,175.9c0-69,56.1-125.1,125.1-125.1S744.9,107,744.9,175.9
		c0,69-56.1,125.1-125.1,125.1S494.7,244.9,494.7,175.9z"/>
	<path fill="#1D1D1B" d="M551.9,108c-18.1,18.1-28.1,42.2-28.1,67.9c0,6.3,5.1,11.3,11.3,11.3c6.3,0,11.3-5.1,11.3-11.3
		c0-19.6,7.6-38,21.5-51.9c4.4-4.4,4.4-11.6,0-16C563.5,103.6,556.4,103.6,551.9,108z"/>
	<path fill="#1D1D1B" d="M331,63.1C331,28.3,302.6,0,267.8,0c-34.8,0-63.1,28.3-63.1,63.1c0,34.8,28.3,63.1,63.1,63.1
		C302.6,126.2,331,97.9,331,63.1z M227.4,63.1c0-22.3,18.2-40.5,40.5-40.5c22.3,0,40.5,18.2,40.5,40.5c0,22.3-18.2,40.5-40.5,40.5
		C245.5,103.6,227.4,85.4,227.4,63.1z"/>
</g>
</svg>
