<?xml version="1.0" encoding="utf-8"?>
<!-- Generator: Adobe Illustrator 25.2.1, SVG Export Plug-In . SVG Version: 6.00 Build 0)  -->
<svg version="1.1" id="Layer_1" xmlns="http://www.w3.org/2000/svg" xmlns:xlink="http://www.w3.org/1999/xlink" x="0px" y="0px"
	 viewBox="0 0 859.5 805.1" enable-background="new 0 0 859.5 805.1" xml:space="preserve">
<g>
	<path fill="#1D1D1B" d="M266.2,505c-82.7,0-150,67.3-150,150.1c0,82.7,67.3,150,150,150c82.7,0,150-67.3,150-150
		C416.3,572.3,348.9,505,266.2,505z M266.2,782.1c-70.1,0-127.1-57-127.1-127S196.2,528,266.2,528c70.1,0,127.1,57,127.1,127.1
		S336.3,782.1,266.2,782.1z"/>
	<path fill="#1D1D1B" d="M197.3,586.1c-18.4,18.4-28.6,42.9-28.6,69c0,6.4,5.1,11.5,11.5,11.5c6.3,0,11.5-5.1,11.5-11.5
		c0-19.9,7.8-38.6,21.8-52.7c4.5-4.5,4.5-11.8,0-16.3C209,581.6,201.7,581.6,197.3,586.1z"/>
	<path fill="#1D1D1B" d="M219.7,107.4c-32.1,32.1-49.8,74.8-49.8,120.2c0,6.4,5.1,11.5,11.5,11.5c6.3,0,11.5-5.1,11.5-11.5
		c0-39.3,15.3-76.2,43.1-104c4.5-4.5,4.5-11.8,0-16.3C231.5,102.9,224.2,102.9,219.7,107.4z"/>
	<path fill="#1D1D1B" d="M340,57.5c-23.6,0-46.5,4.7-67.9,14.1c-5.8,2.5-8.5,9.3-5.9,15.1c1.9,4.3,6.1,6.9,10.5,6.9
		c1.5,0,3.1-0.3,4.6-1c18.5-8.1,38.3-12.2,58.7-12.2c6.3,0,11.5-5.1,11.5-11.5C351.5,62.7,346.3,57.5,340,57.5z"/>
	<path fill="#1D1D1B" d="M621,235c-18.2,0-36.3,2.1-53.9,6.2c0.3-4.5,0.5-9,0.5-13.6C567.5,102.1,465.4,0,340,0
		S112.5,102.1,112.5,227.6c0,125.5,102.1,227.5,227.5,227.5c14.7,0,29.3-1.5,43.6-4.2c-0.7,7.5-1.2,15-1.2,22.6
		c0,131.5,107,238.6,238.6,238.6c131.5,0,238.6-107,238.6-238.6C859.5,342,752.5,235,621,235z M135.5,227.6
		C135.5,114.8,227.2,23,340,23c112.8,0,204.5,91.8,204.5,204.6c0,6.8-0.4,13.6-1.1,20.3c-1.6,0.5-3.1,1.2-4.6,1.8
		c-2.3,0.9-4.6,1.7-6.9,2.6c-2.8,1.1-5.5,2.3-8.2,3.5c-2.2,1-4.4,2-6.6,3c-2.7,1.3-5.3,2.7-8,4.1c-2.1,1.1-4.2,2.2-6.2,3.4
		c-2.6,1.5-5.2,3.1-7.8,4.7c-2,1.2-3.9,2.4-5.8,3.7c-2.6,1.7-5.1,3.6-7.6,5.4c-1.8,1.3-3.6,2.6-5.4,3.9c-2.6,2-5,4.1-7.5,6.1
		c-1.6,1.3-3.2,2.6-4.8,4c-2.7,2.3-5.2,4.8-7.8,7.3c-1.3,1.2-2.6,2.4-3.8,3.6c-3.7,3.7-7.4,7.6-10.8,11.6c-0.3,0.3-0.5,0.7-0.8,1
		c-3.2,3.7-6.3,7.4-9.2,11.3c-1.2,1.5-2.3,3.2-3.4,4.7c-2,2.7-4,5.4-5.8,8.2c-1.3,1.9-2.4,3.8-3.6,5.8c-1.6,2.6-3.2,5.1-4.8,7.8
		c-1.2,2.1-2.3,4.2-3.4,6.4c-1.4,2.6-2.7,5.1-4,7.7c-1.1,2.2-2.1,4.5-3.1,6.8c-1.2,2.6-2.3,5.2-3.4,7.8c-1,2.3-1.8,4.7-2.7,7.1
		c-1,2.7-2,5.3-2.8,8c-0.8,2.4-1.5,4.9-2.2,7.3c-0.8,2.7-1.6,5.5-2.3,8.2c-0.6,2.5-1.2,4.9-1.7,7.4c-0.3,1.6-0.8,3.1-1.1,4.7
		c-15.4,3.6-31.2,5.4-47,5.4C227.2,432.2,135.5,340.4,135.5,227.6z M621,689.1c-118.9,0-215.6-96.7-215.6-215.6
		c0-12.1,1-24.1,2.9-35.6c2.5-14.9,6.5-29.4,12-43.3c2.8-7,6-13.8,9.5-20.5c17.1-32.7,42.4-60.9,73.4-81.2
		c16.6-10.9,34.7-19.5,54-25.4c0,0,0,0,0,0c20.6-6.4,42-9.6,63.6-9.6c118.9,0,215.6,96.7,215.6,215.6S739.8,689.1,621,689.1z"/>
	<path fill="#1D1D1B" d="M495,347.6c-33.6,33.6-52.2,78.4-52.2,126c0,6.4,5.1,11.5,11.5,11.5c6.3,0,11.5-5.1,11.5-11.5
		c0-41.4,16.1-80.4,45.4-109.7c4.5-4.5,4.5-11.8,0-16.3C506.8,343.1,499.5,343.1,495,347.6z"/>
	<path fill="#1D1D1B" d="M620.9,295.4c-24.7,0-48.7,5-71.1,14.8c-5.8,2.5-8.5,9.3-5.9,15.1c1.9,4.3,6.1,6.9,10.5,6.9
		c1.5,0,3.1-0.3,4.6-1c19.6-8.5,40.4-12.9,62-12.9c6.3,0,11.5-5.1,11.5-11.5S627.3,295.4,620.9,295.4z"/>
	<path fill="#1D1D1B" d="M64.1,409.4C28.8,409.4,0,438.2,0,473.5c0,35.3,28.8,64.1,64.1,64.1s64.1-28.8,64.1-64.1
		C128.2,438.2,99.4,409.4,64.1,409.4z M64.1,514.6c-22.7,0-41.1-18.4-41.1-41.1c0-22.7,18.4-41.1,41.1-41.1
		c22.7,0,41.1,18.4,41.1,41.1C105.2,496.2,86.8,514.6,64.1,514.6z"/>
</g>
</svg>
